<svg width="32" height="33" viewBox="0 0 32 33" fill="none" xmlns="http://www.w3.org/2000/svg">
<path d="M23.9979 29.6222C24.0107 29.1526 24.1616 28.6972 24.4317 28.3128C24.7017 27.9284 25.079 27.632 25.5165 27.4606C25.954 27.2893 26.4322 27.2505 26.8915 27.3493C27.3508 27.4481 27.7709 27.6799 28.0993 28.016C28.4277 28.352 28.6498 28.7772 28.738 29.2387C28.8262 29.7002 28.7765 30.1774 28.5952 30.6108C28.4138 31.0443 28.1089 31.4146 27.7184 31.6758C27.3278 31.937 26.869 32.0774 26.3992 32.0794C25.7558 32.0693 25.1424 31.8054 24.6926 31.3452C24.2429 30.885 23.9932 30.2657 23.9979 29.6222ZM6.19828 29.6222C6.21112 29.1525 6.36204 28.6971 6.63218 28.3126C6.90233 27.9281 7.27972 27.6317 7.71727 27.4604C8.15483 27.2892 8.63316 27.2506 9.09252 27.3495C9.55188 27.4484 9.97192 27.6804 10.3002 28.0165C10.6285 28.3527 10.8506 28.7781 10.9386 29.2397C11.0266 29.7012 10.9767 30.1785 10.7951 30.6119C10.6135 31.0453 10.3084 31.4156 9.91761 31.6766C9.52687 31.9376 9.06787 32.0777 8.59798 32.0794C7.95415 32.0702 7.34014 31.8067 6.88994 31.3463C6.43974 30.8859 6.18994 30.2661 6.19506 29.6222H6.19828ZM8.85632 24.5772C7.83793 24.5761 6.85914 24.1827 6.12334 23.4786C5.37461 22.765 4.91677 21.7993 4.83816 20.7679L3.38077 3.0337L0.988993 2.60957C0.691059 2.55182 0.425275 2.38522 0.243461 2.14223C0.0616468 1.89924 -0.0231988 1.59727 0.00546118 1.29515C0.0341211 0.993023 0.174234 0.71238 0.398494 0.507912C0.622755 0.303445 0.915096 0.189788 1.21857 0.189087C1.27943 0.189603 1.34019 0.194354 1.40037 0.203393L5.17299 0.787031C5.43494 0.838921 5.67266 0.975194 5.84977 1.17505C6.02687 1.37491 6.13359 1.62729 6.15361 1.89358L6.45496 5.53866C6.472 5.7826 6.57957 6.01137 6.75656 6.18011C6.93355 6.34884 7.16721 6.44539 7.41168 6.45076H28.7782C29.2109 6.4378 29.6402 6.53032 30.0291 6.72034C30.418 6.91035 30.7548 7.19218 31.0105 7.54144C31.296 7.94206 31.4966 8.39672 31.5999 8.87766C31.7033 9.35861 31.7073 9.85563 31.6117 10.3382L30.1064 21.0119C29.9783 21.9875 29.5034 22.8843 28.7686 23.5387C28.0338 24.193 27.088 24.561 26.1042 24.5756L8.85632 24.5772ZM18.0168 13.693C18.0147 13.8511 18.0437 14.0081 18.1023 14.1549C18.1609 14.3018 18.2478 14.4357 18.3581 14.549C18.4684 14.6623 18.6 14.7527 18.7452 14.8152C18.8905 14.8776 19.0466 14.9108 19.2047 14.9129H23.5865C23.7446 14.9108 23.9007 14.8776 24.046 14.8152C24.1912 14.7527 24.3228 14.6623 24.4331 14.549C24.5434 14.4357 24.6303 14.3018 24.6889 14.1549C24.7474 14.0081 24.7765 13.8511 24.7744 13.693C24.7821 13.377 24.664 13.0708 24.446 12.8418C24.2281 12.6127 23.928 12.4796 23.612 12.4717H19.2031C19.0466 12.4723 18.8917 12.5038 18.7473 12.5643C18.6029 12.6248 18.4719 12.7132 18.3617 12.8244C18.2515 12.9357 18.1644 13.0675 18.1052 13.2125C18.046 13.3574 18.016 13.5125 18.0168 13.6691C18.0168 13.6691 18.0168 13.6851 18.0168 13.6915V13.693Z" fill="#3F2D20"/>
</svg>
