<svg width="640" height="631" viewBox="0 0 640 631" fill="none" xmlns="http://www.w3.org/2000/svg">
<path d="M516.045 184.1C612.973 202.147 668.023 329.032 604.3 378.892C531.117 436.157 546.211 604.976 424.002 563.727C345.048 535.212 263.946 618.211 204.44 622.455C143.978 626.501 52.0426 570.563 96.5715 489.915C140.244 410.815 -73.5786 270.972 40.6824 187.724C114.144 134.203 68.8562 104.451 131.945 55.9811C197.26 6.49646 263.954 93.7666 361.781 13.3009C419.814 -34.4327 419.712 166.864 516.045 184.1Z" fill="#FFE2CD"/>
<path d="M311.704 459.76C401.258 459.76 473.857 387.162 473.857 297.607C473.857 208.052 401.258 135.454 311.704 135.454C222.149 135.454 149.551 208.052 149.551 297.607C149.551 387.162 222.149 459.76 311.704 459.76Z" fill="#C1D9B9"/>
</svg>
