<svg width="192" height="73" viewBox="0 0 192 73" fill="none" xmlns="http://www.w3.org/2000/svg">
<mask id="path-1-inside-1_10_48355" fill="white">
<path d="M33.9228 4.45011L20.3537 30.734V45.6855H13.6281V30.734L0 4.45011H7.4925L16.9909 24.6822L26.4892 4.45011H33.9228ZM53.3601 46.2195C50.2923 46.2195 47.5195 45.5273 45.0417 44.1429C42.5638 42.7189 40.617 40.7412 39.2011 38.2097C37.7852 35.6387 37.0772 32.6721 37.0772 29.31C37.0772 25.9874 37.8048 23.0406 39.2601 20.4696C40.7153 17.8986 42.7015 15.9209 45.2187 14.5365C47.7358 13.1521 50.548 12.4599 53.6551 12.4599C56.7622 12.4599 59.5744 13.1521 62.0915 14.5365C64.6087 15.9209 66.5949 17.8986 68.0501 20.4696C69.5054 23.0406 70.233 25.9874 70.233 29.31C70.233 32.6326 69.4857 35.5794 67.9911 38.1504C66.4966 40.7214 64.4514 42.7189 61.8556 44.1429C59.2991 45.5273 56.4672 46.2195 53.3601 46.2195ZM53.3601 40.3457C55.0907 40.3457 56.7032 39.9303 58.1978 39.0997C59.7317 38.2691 60.9706 37.0231 61.9146 35.3618C62.8585 33.7005 63.3305 31.6833 63.3305 29.31C63.3305 26.9367 62.8782 24.9393 61.9735 23.3175C61.0689 21.6562 59.8694 20.4103 58.3748 19.5796C56.8802 18.749 55.2677 18.3337 53.5371 18.3337C51.8066 18.3337 50.194 18.749 48.6994 19.5796C47.2442 20.4103 46.0839 21.6562 45.2187 23.3175C44.3534 24.9393 43.9207 26.9367 43.9207 29.31C43.9207 32.8303 44.8057 35.5596 46.5756 37.4978C48.3848 39.3964 50.6463 40.3457 53.3601 40.3457ZM90.9816 46.2195C87.9138 46.2195 85.141 45.5273 82.6632 44.1429C80.1854 42.7189 78.2385 40.7412 76.8226 38.2097C75.4067 35.6387 74.6987 32.6721 74.6987 29.31C74.6987 25.9874 75.4263 23.0406 76.8816 20.4696C78.3368 17.8986 80.323 15.9209 82.8402 14.5365C85.3574 13.1521 88.1695 12.4599 91.2766 12.4599C94.3838 12.4599 97.1959 13.1521 99.7131 14.5365C102.23 15.9209 104.216 17.8986 105.672 20.4696C107.127 23.0406 107.855 25.9874 107.855 29.31C107.855 32.6326 107.107 35.5794 105.613 38.1504C104.118 40.7214 102.073 42.7189 99.4771 44.1429C96.9206 45.5273 94.0888 46.2195 90.9816 46.2195ZM90.9816 40.3457C92.7122 40.3457 94.3248 39.9303 95.8193 39.0997C97.3532 38.2691 98.5922 37.0231 99.5361 35.3618C100.48 33.7005 100.952 31.6833 100.952 29.31C100.952 26.9367 100.5 24.9393 99.5951 23.3175C98.6905 21.6562 97.4909 20.4103 95.9963 19.5796C94.5017 18.749 92.8892 18.3337 91.1586 18.3337C89.4281 18.3337 87.8155 18.749 86.321 19.5796C84.8657 20.4103 83.7055 21.6562 82.8402 23.3175C81.9749 24.9393 81.5423 26.9367 81.5423 29.31C81.5423 32.8303 82.4272 35.5596 84.1971 37.4978C86.0063 39.3964 88.2678 40.3457 90.9816 40.3457ZM126.302 46.2195C123.746 46.2195 121.445 45.7646 119.4 44.8549C117.394 43.9056 115.801 42.6398 114.621 41.0577C113.441 39.4359 112.812 37.6362 112.733 35.6585H119.695C119.813 37.0429 120.462 38.2097 121.642 39.159C122.861 40.0688 124.375 40.5237 126.184 40.5237C128.072 40.5237 129.527 40.1677 130.55 39.4557C131.612 38.7042 132.143 37.7549 132.143 36.6078C132.143 35.3816 131.553 34.4719 130.373 33.8785C129.232 33.2852 127.404 32.6326 124.886 31.9206C122.448 31.2482 120.462 30.5955 118.928 29.9627C117.394 29.3298 116.057 28.3607 114.916 27.0554C113.815 25.7501 113.264 24.0295 113.264 21.8936C113.264 20.1532 113.775 18.571 114.798 17.147C115.821 15.6835 117.276 14.5365 119.164 13.7058C121.091 12.8752 123.294 12.4599 125.771 12.4599C129.468 12.4599 132.438 13.4092 134.68 15.3078C136.961 17.1668 138.18 19.7181 138.338 22.9615H131.612C131.494 21.498 130.904 20.3312 129.842 19.461C128.78 18.5908 127.345 18.1557 125.535 18.1557C123.766 18.1557 122.409 18.4919 121.465 19.1643C120.521 19.8367 120.049 20.7267 120.049 21.8342C120.049 22.7044 120.363 23.4362 120.993 24.0295C121.622 24.6228 122.389 25.0975 123.294 25.4535C124.198 25.7699 125.535 26.1852 127.305 26.6994C129.665 27.3323 131.592 27.9849 133.087 28.6574C134.621 29.2902 135.938 30.2395 137.04 31.5053C138.141 32.771 138.711 34.4521 138.751 36.5485C138.751 38.4075 138.239 40.0688 137.217 41.5323C136.194 42.9958 134.739 44.1429 132.851 44.9735C131.002 45.8042 128.82 46.2195 126.302 46.2195ZM162.832 12.4599C165.309 12.4599 167.512 12.9938 169.439 14.0618C171.406 15.1298 172.94 16.712 174.041 18.8083C175.181 20.9047 175.752 23.4362 175.752 26.4028V45.6855H169.085V27.4114C169.085 24.4844 168.357 22.2496 166.902 20.7069C165.447 19.1248 163.461 18.3337 160.944 18.3337C158.426 18.3337 156.421 19.1248 154.926 20.7069C153.471 22.2496 152.743 24.4844 152.743 27.4114V45.6855H146.018V1.78019H152.743V16.7911C153.884 15.4067 155.319 14.3387 157.05 13.5872C158.82 12.8356 160.747 12.4599 162.832 12.4599ZM187.752 8.66265C186.533 8.66265 185.51 8.24732 184.684 7.41668C183.859 6.58604 183.446 5.55763 183.446 4.33144C183.446 3.10526 183.859 2.07685 184.684 1.24621C185.51 0.415565 186.533 0.000244141 187.752 0.000244141C188.932 0.000244141 189.935 0.415565 190.761 1.24621C191.587 2.07685 192 3.10526 192 4.33144C192 5.55763 191.587 6.58604 190.761 7.41668C189.935 8.24732 188.932 8.66265 187.752 8.66265ZM191.056 12.9938V45.6855H184.331V12.9938H191.056Z"/>
<path d="M8.98696 60.731V69.0028C8.98696 70.2834 8.6256 71.2697 7.9029 71.9619C7.19167 72.6541 6.22807 73.0002 5.01209 73.0002C3.73876 73.0002 2.7178 72.6368 1.94921 71.91C1.18063 71.1832 0.796332 70.1507 0.796332 68.8124H3.72155C3.72155 69.32 3.8248 69.7065 4.03128 69.9719C4.23777 70.2257 4.53603 70.3526 4.92606 70.3526C5.28167 70.3526 5.55699 70.2372 5.752 70.0065C5.94702 69.7757 6.04453 69.4412 6.04453 69.0028V60.731H8.98696Z"/>
<path d="M21.0341 70.7333H16.5259L15.8032 72.8791H12.7231L17.0937 60.731H20.5007L24.8713 72.8791H21.7568L21.0341 70.7333ZM20.277 68.449L18.78 64.0016L17.3002 68.449H20.277Z"/>
<path d="M37.5583 64.6419C37.5583 65.3457 37.3977 65.9917 37.0765 66.5801C36.7553 67.1569 36.262 67.6242 35.5967 67.9818C34.9313 68.3394 34.1054 68.5182 33.1188 68.5182H31.2949V72.8791H28.3524V60.731H33.1188C34.0824 60.731 34.8969 60.8983 35.5623 61.2328C36.2276 61.5674 36.7266 62.0289 37.0593 62.6172C37.392 63.2056 37.5583 63.8805 37.5583 64.6419ZM32.8951 66.1648C33.4572 66.1648 33.876 66.0321 34.1513 65.7667C34.4266 65.5014 34.5642 65.1265 34.5642 64.6419C34.5642 64.1574 34.4266 63.7824 34.1513 63.5171C33.876 63.2517 33.4572 63.1191 32.8951 63.1191H31.2949V66.1648H32.8951Z"/>
<path d="M48.7606 70.7333H44.2523L43.5296 72.8791H40.4495L44.8201 60.731H48.2272L52.5978 72.8791H49.4833L48.7606 70.7333ZM48.0035 68.449L46.5064 64.0016L45.0266 68.449H48.0035Z"/>
<path d="M66.885 72.8791H63.9426L59.0213 65.386V72.8791H56.0789V60.731H59.0213L63.9426 68.2587V60.731H66.885V72.8791Z"/>
<path d="M74.1112 63.1018V65.5591H78.0517V67.8434H74.1112V70.5083H78.5679V72.8791H71.1688V60.731H78.5679V63.1018H74.1112Z"/>
<path d="M86.9997 73.0002C86.1164 73.0002 85.3248 72.856 84.6251 72.5676C83.9253 72.2792 83.3632 71.8523 82.9388 71.287C82.5258 70.7218 82.3078 70.0411 82.2849 69.2451H85.4166C85.4625 69.695 85.6174 70.0411 85.8812 70.2834C86.145 70.5141 86.4892 70.6295 86.9136 70.6295C87.3495 70.6295 87.6937 70.5314 87.9461 70.3353C88.1984 70.1276 88.3246 69.845 88.3246 69.4873C88.3246 69.1874 88.2214 68.9393 88.0149 68.7432C87.8199 68.5471 87.5732 68.3856 87.275 68.2587C86.9882 68.1318 86.5752 67.9876 86.0361 67.826C85.256 67.5838 84.6193 67.3415 84.1261 67.0992C83.6328 66.857 83.2083 66.4993 82.8527 66.0263C82.4971 65.5533 82.3193 64.9361 82.3193 64.1747C82.3193 63.0441 82.7265 62.1615 83.541 61.527C84.3555 60.881 85.4166 60.5579 86.7243 60.5579C88.055 60.5579 89.1276 60.881 89.9421 61.527C90.7566 62.1615 91.1925 63.0499 91.2498 64.192H88.0665C88.0436 63.7997 87.9002 63.494 87.6363 63.2748C87.3725 63.0441 87.0341 62.9287 86.6211 62.9287C86.2655 62.9287 85.9787 63.0268 85.7607 63.2229C85.5428 63.4075 85.4338 63.6786 85.4338 64.0362C85.4338 64.4285 85.6173 64.7342 85.9844 64.9534C86.3515 65.1726 86.9251 65.4091 87.7052 65.6629C88.4852 65.9283 89.1162 66.1821 89.598 66.4243C90.0912 66.6666 90.5157 67.0185 90.8713 67.4799C91.2269 67.9414 91.4047 68.5355 91.4047 69.2624C91.4047 69.9546 91.2269 70.5833 90.8713 71.1486C90.5271 71.7139 90.0224 72.1638 89.357 72.4984C88.6917 72.833 87.9059 73.0002 86.9997 73.0002Z"/>
<path d="M98.3088 63.1018V65.5591H102.249V67.8434H98.3088V70.5083H102.765V72.8791H95.3664V60.731H102.765V63.1018H98.3088Z"/>
<path d="M112.125 66.7877C112.125 65.5879 112.383 64.5208 112.899 63.5863C113.416 62.6403 114.132 61.9077 115.05 61.3886C115.979 60.8579 117.029 60.5925 118.199 60.5925C119.633 60.5925 120.861 60.9733 121.881 61.7347C122.902 62.4961 123.585 63.5344 123.929 64.8496H120.694C120.453 64.342 120.109 63.9555 119.662 63.6901C119.226 63.4248 118.727 63.2921 118.165 63.2921C117.258 63.2921 116.524 63.6094 115.962 64.2439C115.4 64.8784 115.119 65.7264 115.119 66.7877C115.119 67.8491 115.4 68.6971 115.962 69.3316C116.524 69.9661 117.258 70.2834 118.165 70.2834C118.727 70.2834 119.226 70.1507 119.662 69.8853C120.109 69.62 120.453 69.2335 120.694 68.7259H123.929C123.585 70.0411 122.902 71.0794 121.881 71.8408C120.861 72.5907 119.633 72.9656 118.199 72.9656C117.029 72.9656 115.979 72.7061 115.05 72.1869C114.132 71.6562 113.416 70.9236 112.899 69.9892C112.383 69.0547 112.125 67.9876 112.125 66.7877Z"/>
<path d="M130.773 60.731V67.9991C130.773 68.7259 130.951 69.2854 131.306 69.6777C131.662 70.0699 132.184 70.2661 132.872 70.2661C133.56 70.2661 134.088 70.0699 134.455 69.6777C134.822 69.2854 135.006 68.7259 135.006 67.9991V60.731H137.948V67.9818C137.948 69.0662 137.719 69.9834 137.26 70.7333C136.801 71.4832 136.182 72.0485 135.401 72.4292C134.633 72.8099 133.773 73.0002 132.82 73.0002C131.868 73.0002 131.014 72.8157 130.257 72.4465C129.511 72.0658 128.92 71.5005 128.484 70.7506C128.048 69.9892 127.83 69.0662 127.83 67.9818V60.731H130.773Z"/>
<path d="M145.108 60.731V72.8791H142.165V60.731H145.108Z"/>
<path d="M153.762 73.0002C152.878 73.0002 152.087 72.856 151.387 72.5676C150.687 72.2792 150.125 71.8523 149.701 71.287C149.288 70.7218 149.07 70.0411 149.047 69.2451H152.178C152.224 69.695 152.379 70.0411 152.643 70.2834C152.907 70.5141 153.251 70.6295 153.676 70.6295C154.111 70.6295 154.456 70.5314 154.708 70.3353C154.96 70.1276 155.087 69.845 155.087 69.4873C155.087 69.1874 154.983 68.9393 154.777 68.7432C154.582 68.5471 154.335 68.3856 154.037 68.2587C153.75 68.1318 153.337 67.9876 152.798 67.826C152.018 67.5838 151.381 67.3415 150.888 67.0992C150.395 66.857 149.97 66.4993 149.615 66.0263C149.259 65.5533 149.081 64.9361 149.081 64.1747C149.081 63.0441 149.488 62.1615 150.303 61.527C151.117 60.881 152.179 60.5579 153.486 60.5579C154.817 60.5579 155.89 60.881 156.704 61.527C157.518 62.1615 157.954 63.0499 158.012 64.192H154.828C154.805 63.7997 154.662 63.494 154.398 63.2748C154.134 63.0441 153.796 62.9287 153.383 62.9287C153.027 62.9287 152.741 63.0268 152.523 63.2229C152.305 63.4075 152.196 63.6786 152.196 64.0362C152.196 64.4285 152.379 64.7342 152.746 64.9534C153.113 65.1726 153.687 65.4091 154.467 65.6629C155.247 65.9283 155.878 66.1821 156.36 66.4243C156.853 66.6666 157.278 67.0185 157.633 67.4799C157.989 67.9414 158.167 68.5355 158.167 69.2624C158.167 69.9546 157.989 70.5833 157.633 71.1486C157.289 71.7139 156.784 72.1638 156.119 72.4984C155.454 72.833 154.668 73.0002 153.762 73.0002Z"/>
<path d="M165.071 60.731V72.8791H162.128V60.731H165.071Z"/>
<path d="M180.16 72.8791H177.218L172.296 65.386V72.8791H169.354V60.731H172.296L177.218 68.2587V60.731H180.16V72.8791Z"/>
<path d="M187.386 63.1018V65.5591H191.327V67.8434H187.386V70.5083H191.843V72.8791H184.444V60.731H191.843V63.1018H187.386Z"/>
</mask>
<path d="M8.98696 60.731V69.0028C8.98696 70.2834 8.6256 71.2697 7.9029 71.9619C7.19167 72.6541 6.22807 73.0002 5.01209 73.0002C3.73876 73.0002 2.7178 72.6368 1.94921 71.91C1.18063 71.1832 0.796332 70.1507 0.796332 68.8124H3.72155C3.72155 69.32 3.8248 69.7065 4.03128 69.9719C4.23777 70.2257 4.53603 70.3526 4.92606 70.3526C5.28167 70.3526 5.55699 70.2372 5.752 70.0065C5.94702 69.7757 6.04453 69.4412 6.04453 69.0028V60.731H8.98696Z" fill="#FFF5E0"/>
<path d="M21.0341 70.7333H16.5259L15.8032 72.8791H12.7231L17.0937 60.731H20.5007L24.8713 72.8791H21.7568L21.0341 70.7333ZM20.277 68.449L18.78 64.0016L17.3002 68.449H20.277Z" fill="#FFF5E0"/>
<path d="M37.5583 64.6419C37.5583 65.3457 37.3977 65.9917 37.0765 66.5801C36.7553 67.1569 36.262 67.6242 35.5967 67.9818C34.9313 68.3394 34.1054 68.5182 33.1188 68.5182H31.2949V72.8791H28.3524V60.731H33.1188C34.0824 60.731 34.8969 60.8983 35.5623 61.2328C36.2276 61.5674 36.7266 62.0289 37.0593 62.6172C37.392 63.2056 37.5583 63.8805 37.5583 64.6419ZM32.8951 66.1648C33.4572 66.1648 33.876 66.0321 34.1513 65.7667C34.4266 65.5014 34.5642 65.1265 34.5642 64.6419C34.5642 64.1574 34.4266 63.7824 34.1513 63.5171C33.876 63.2517 33.4572 63.1191 32.8951 63.1191H31.2949V66.1648H32.8951Z" fill="#FFF5E0"/>
<path d="M48.7606 70.7333H44.2523L43.5296 72.8791H40.4495L44.8201 60.731H48.2272L52.5978 72.8791H49.4833L48.7606 70.7333ZM48.0035 68.449L46.5064 64.0016L45.0266 68.449H48.0035Z" fill="#FFF5E0"/>
<path d="M66.885 72.8791H63.9426L59.0213 65.386V72.8791H56.0789V60.731H59.0213L63.9426 68.2587V60.731H66.885V72.8791Z" fill="#FFF5E0"/>
<path d="M74.1112 63.1018V65.5591H78.0517V67.8434H74.1112V70.5083H78.5679V72.8791H71.1688V60.731H78.5679V63.1018H74.1112Z" fill="#FFF5E0"/>
<path d="M86.9997 73.0002C86.1164 73.0002 85.3248 72.856 84.6251 72.5676C83.9253 72.2792 83.3632 71.8523 82.9388 71.287C82.5258 70.7218 82.3078 70.0411 82.2849 69.2451H85.4166C85.4625 69.695 85.6174 70.0411 85.8812 70.2834C86.145 70.5141 86.4892 70.6295 86.9136 70.6295C87.3495 70.6295 87.6937 70.5314 87.9461 70.3353C88.1984 70.1276 88.3246 69.845 88.3246 69.4873C88.3246 69.1874 88.2214 68.9393 88.0149 68.7432C87.8199 68.5471 87.5732 68.3856 87.275 68.2587C86.9882 68.1318 86.5752 67.9876 86.0361 67.826C85.256 67.5838 84.6193 67.3415 84.1261 67.0992C83.6328 66.857 83.2083 66.4993 82.8527 66.0263C82.4971 65.5533 82.3193 64.9361 82.3193 64.1747C82.3193 63.0441 82.7265 62.1615 83.541 61.527C84.3555 60.881 85.4166 60.5579 86.7243 60.5579C88.055 60.5579 89.1276 60.881 89.9421 61.527C90.7566 62.1615 91.1925 63.0499 91.2498 64.192H88.0665C88.0436 63.7997 87.9002 63.494 87.6363 63.2748C87.3725 63.0441 87.0341 62.9287 86.6211 62.9287C86.2655 62.9287 85.9787 63.0268 85.7607 63.2229C85.5428 63.4075 85.4338 63.6786 85.4338 64.0362C85.4338 64.4285 85.6173 64.7342 85.9844 64.9534C86.3515 65.1726 86.9251 65.4091 87.7052 65.6629C88.4852 65.9283 89.1162 66.1821 89.598 66.4243C90.0912 66.6666 90.5157 67.0185 90.8713 67.4799C91.2269 67.9414 91.4047 68.5355 91.4047 69.2624C91.4047 69.9546 91.2269 70.5833 90.8713 71.1486C90.5271 71.7139 90.0224 72.1638 89.357 72.4984C88.6917 72.833 87.9059 73.0002 86.9997 73.0002Z" fill="#FFF5E0"/>
<path d="M98.3088 63.1018V65.5591H102.249V67.8434H98.3088V70.5083H102.765V72.8791H95.3664V60.731H102.765V63.1018H98.3088Z" fill="#FFF5E0"/>
<path d="M112.125 66.7877C112.125 65.5879 112.383 64.5208 112.899 63.5863C113.416 62.6403 114.132 61.9077 115.05 61.3886C115.979 60.8579 117.029 60.5925 118.199 60.5925C119.633 60.5925 120.861 60.9733 121.881 61.7347C122.902 62.4961 123.585 63.5344 123.929 64.8496H120.694C120.453 64.342 120.109 63.9555 119.662 63.6901C119.226 63.4248 118.727 63.2921 118.165 63.2921C117.258 63.2921 116.524 63.6094 115.962 64.2439C115.4 64.8784 115.119 65.7264 115.119 66.7877C115.119 67.8491 115.4 68.6971 115.962 69.3316C116.524 69.9661 117.258 70.2834 118.165 70.2834C118.727 70.2834 119.226 70.1507 119.662 69.8853C120.109 69.62 120.453 69.2335 120.694 68.7259H123.929C123.585 70.0411 122.902 71.0794 121.881 71.8408C120.861 72.5907 119.633 72.9656 118.199 72.9656C117.029 72.9656 115.979 72.7061 115.05 72.1869C114.132 71.6562 113.416 70.9236 112.899 69.9892C112.383 69.0547 112.125 67.9876 112.125 66.7877Z" fill="#FFF5E0"/>
<path d="M130.773 60.731V67.9991C130.773 68.7259 130.951 69.2854 131.306 69.6777C131.662 70.0699 132.184 70.2661 132.872 70.2661C133.56 70.2661 134.088 70.0699 134.455 69.6777C134.822 69.2854 135.006 68.7259 135.006 67.9991V60.731H137.948V67.9818C137.948 69.0662 137.719 69.9834 137.26 70.7333C136.801 71.4832 136.182 72.0485 135.401 72.4292C134.633 72.8099 133.773 73.0002 132.82 73.0002C131.868 73.0002 131.014 72.8157 130.257 72.4465C129.511 72.0658 128.92 71.5005 128.484 70.7506C128.048 69.9892 127.83 69.0662 127.83 67.9818V60.731H130.773Z" fill="#FFF5E0"/>
<path d="M145.108 60.731V72.8791H142.165V60.731H145.108Z" fill="#FFF5E0"/>
<path d="M153.762 73.0002C152.878 73.0002 152.087 72.856 151.387 72.5676C150.687 72.2792 150.125 71.8523 149.701 71.287C149.288 70.7218 149.07 70.0411 149.047 69.2451H152.178C152.224 69.695 152.379 70.0411 152.643 70.2834C152.907 70.5141 153.251 70.6295 153.676 70.6295C154.111 70.6295 154.456 70.5314 154.708 70.3353C154.96 70.1276 155.087 69.845 155.087 69.4873C155.087 69.1874 154.983 68.9393 154.777 68.7432C154.582 68.5471 154.335 68.3856 154.037 68.2587C153.75 68.1318 153.337 67.9876 152.798 67.826C152.018 67.5838 151.381 67.3415 150.888 67.0992C150.395 66.857 149.97 66.4993 149.615 66.0263C149.259 65.5533 149.081 64.9361 149.081 64.1747C149.081 63.0441 149.488 62.1615 150.303 61.527C151.117 60.881 152.179 60.5579 153.486 60.5579C154.817 60.5579 155.89 60.881 156.704 61.527C157.518 62.1615 157.954 63.0499 158.012 64.192H154.828C154.805 63.7997 154.662 63.494 154.398 63.2748C154.134 63.0441 153.796 62.9287 153.383 62.9287C153.027 62.9287 152.741 63.0268 152.523 63.2229C152.305 63.4075 152.196 63.6786 152.196 64.0362C152.196 64.4285 152.379 64.7342 152.746 64.9534C153.113 65.1726 153.687 65.4091 154.467 65.6629C155.247 65.9283 155.878 66.1821 156.36 66.4243C156.853 66.6666 157.278 67.0185 157.633 67.4799C157.989 67.9414 158.167 68.5355 158.167 69.2624C158.167 69.9546 157.989 70.5833 157.633 71.1486C157.289 71.7139 156.784 72.1638 156.119 72.4984C155.454 72.833 154.668 73.0002 153.762 73.0002Z" fill="#FFF5E0"/>
<path d="M165.071 60.731V72.8791H162.128V60.731H165.071Z" fill="#FFF5E0"/>
<path d="M180.16 72.8791H177.218L172.296 65.386V72.8791H169.354V60.731H172.296L177.218 68.2587V60.731H180.16V72.8791Z" fill="#FFF5E0"/>
<path d="M187.386 63.1018V65.5591H191.327V67.8434H187.386V70.5083H191.843V72.8791H184.444V60.731H191.843V63.1018H187.386Z" fill="#FFF5E0"/>
<path d="M33.9228 4.45011L34.8113 4.90884L35.5644 3.45011H33.9228V4.45011ZM20.3537 30.734L19.4651 30.2752L19.3537 30.4911V30.734H20.3537ZM20.3537 45.6855V46.6855H21.3537V45.6855H20.3537ZM13.6281 45.6855H12.6281V46.6855H13.6281V45.6855ZM13.6281 30.734H14.6281V30.4901L14.5159 30.2737L13.6281 30.734ZM0 4.45011V3.45011H-1.64492L-0.887762 4.91041L0 4.45011ZM7.4925 4.45011L8.39771 4.02514L8.12775 3.45011H7.4925V4.45011ZM16.9909 24.6822L16.0857 25.1071L16.9909 27.0353L17.8961 25.1071L16.9909 24.6822ZM26.4892 4.45011V3.45011H25.854L25.584 4.02514L26.4892 4.45011ZM45.0417 44.1429L44.5434 45.01L44.5539 45.0159L45.0417 44.1429ZM39.2011 38.2097L38.3251 38.6921L38.3283 38.6979L39.2011 38.2097ZM45.2187 14.5365L44.7368 13.6602L44.7368 13.6602L45.2187 14.5365ZM62.0915 14.5365L62.5734 13.6602L62.5734 13.6602L62.0915 14.5365ZM61.8556 44.1429L62.3317 45.0222L62.3365 45.0196L61.8556 44.1429ZM58.1978 39.0997L57.7216 38.2203L57.712 38.2256L58.1978 39.0997ZM61.9146 35.3618L61.0451 34.8678L61.0451 34.8678L61.9146 35.3618ZM61.9735 23.3175L61.0953 23.7958L61.1002 23.8047L61.9735 23.3175ZM48.6994 19.5796L48.2136 18.7055L48.2037 18.7112L48.6994 19.5796ZM45.2187 23.3175L46.101 23.7883L46.1056 23.7795L45.2187 23.3175ZM46.5756 37.4978L45.8371 38.1721L45.8443 38.1799L45.8516 38.1876L46.5756 37.4978ZM82.6632 44.1429L82.1649 45.01L82.1755 45.0159L82.6632 44.1429ZM76.8226 38.2097L75.9466 38.6921L75.9498 38.6979L76.8226 38.2097ZM82.8402 14.5365L82.3583 13.6602L82.3583 13.6602L82.8402 14.5365ZM99.7131 14.5365L100.195 13.6602L100.195 13.6602L99.7131 14.5365ZM99.4771 44.1429L99.9533 45.0222L99.958 45.0196L99.4771 44.1429ZM95.8193 39.0997L95.3431 38.2203L95.3335 38.2256L95.8193 39.0997ZM99.5361 35.3618L98.6666 34.8678L98.6666 34.8678L99.5361 35.3618ZM99.5951 23.3175L98.7168 23.7958L98.7218 23.8047L99.5951 23.3175ZM86.321 19.5796L85.8351 18.7055L85.8252 18.7112L86.321 19.5796ZM82.8402 23.3175L83.7225 23.7883L83.7271 23.7795L82.8402 23.3175ZM84.1971 37.4978L83.4587 38.1721L83.4658 38.1799L83.4732 38.1876L84.1971 37.4978ZM119.4 44.8549L118.972 45.7588L118.983 45.7638L118.993 45.7685L119.4 44.8549ZM114.621 41.0577L113.812 41.646L113.819 41.6555L114.621 41.0577ZM112.733 35.6585V34.6585H111.693L111.734 35.6982L112.733 35.6585ZM119.695 35.6585L120.691 35.5736L120.613 34.6585H119.695V35.6585ZM121.642 39.159L121.015 39.9382L121.029 39.9496L121.044 39.9605L121.642 39.159ZM130.55 39.4557L131.121 40.2764L131.128 40.272L130.55 39.4557ZM130.373 33.8785L129.912 34.7658L129.924 34.7719L130.373 33.8785ZM124.886 31.9206L125.159 30.9583L125.152 30.9566L124.886 31.9206ZM118.928 29.9627L118.546 30.8871L118.546 30.8871L118.928 29.9627ZM114.916 27.0554L114.152 27.7003L114.157 27.7069L114.163 27.7134L114.916 27.0554ZM114.798 17.147L115.61 17.7304L115.618 17.7198L114.798 17.147ZM119.164 13.7058L118.768 12.7875L118.761 12.7905L119.164 13.7058ZM134.68 15.3078L134.034 16.0709L134.041 16.077L134.048 16.083L134.68 15.3078ZM138.338 22.9615V23.9615H139.387L139.336 22.9131L138.338 22.9615ZM131.612 22.9615L130.615 23.0419L130.689 23.9615H131.612V22.9615ZM129.842 19.461L130.476 18.6875L130.476 18.6875L129.842 19.461ZM121.465 19.1643L120.884 18.3498L120.884 18.3498L121.465 19.1643ZM120.993 24.0295L120.307 24.7571L120.307 24.7571L120.993 24.0295ZM123.294 25.4535L122.927 26.384L122.945 26.391L122.963 26.3974L123.294 25.4535ZM127.305 26.6994L127.026 27.6597L127.036 27.6626L127.046 27.6653L127.305 26.6994ZM133.087 28.6574L132.677 29.5693L132.691 29.5758L132.705 29.5818L133.087 28.6574ZM137.04 31.5053L136.285 32.1617L136.285 32.1617L137.04 31.5053ZM138.751 36.5485H139.751V36.5391L139.75 36.5297L138.751 36.5485ZM137.217 41.5323L136.397 40.9595L136.397 40.9595L137.217 41.5323ZM132.851 44.9735L132.448 44.0582L132.441 44.0614L132.851 44.9735ZM169.439 14.0618L168.954 14.9365L168.962 14.9406L169.439 14.0618ZM174.041 18.8083L173.156 19.2734L173.159 19.2798L173.162 19.2863L174.041 18.8083ZM175.752 45.6855V46.6855H176.752V45.6855H175.752ZM169.085 45.6855H168.085V46.6855H169.085V45.6855ZM166.902 20.7069L166.166 21.384L166.175 21.3931L166.902 20.7069ZM154.926 20.7069L154.199 20.0202L154.199 20.0207L154.926 20.7069ZM152.743 45.6855V46.6855H153.743V45.6855H152.743ZM146.018 45.6855H145.018V46.6855H146.018V45.6855ZM146.018 1.78019V0.780191H145.018V1.78019H146.018ZM152.743 1.78019H153.743V0.780191H152.743V1.78019ZM152.743 16.7911H151.743V19.5775L153.515 17.4269L152.743 16.7911ZM157.05 13.5872L156.659 12.6667L156.652 12.6699L157.05 13.5872ZM184.684 7.41668L185.394 6.71158L185.394 6.71158L184.684 7.41668ZM184.684 1.24621L185.394 1.95131L185.394 1.95131L184.684 1.24621ZM190.761 1.24621L190.052 1.95131L190.052 1.95131L190.761 1.24621ZM190.761 7.41668L190.052 6.71158L190.052 6.71158L190.761 7.41668ZM191.056 12.9938H192.056V11.9938H191.056V12.9938ZM191.056 45.6855V46.6855H192.056V45.6855H191.056ZM184.331 45.6855H183.331V46.6855H184.331V45.6855ZM184.331 12.9938V11.9938H183.331V12.9938H184.331ZM8.98696 60.731H9.98696V59.731H8.98696V60.731ZM7.9029 71.9619L7.21118 71.2397L7.20545 71.2453L7.9029 71.9619ZM1.94921 71.91L1.26213 72.6366L1.26213 72.6366L1.94921 71.91ZM0.796332 68.8124V67.8124H-0.203668V68.8124H0.796332ZM3.72155 68.8124H4.72155V67.8124H3.72155V68.8124ZM4.03128 69.9719L3.24209 70.586L3.24874 70.5946L3.25557 70.603L4.03128 69.9719ZM5.752 70.0065L4.98826 69.361L4.98826 69.361L5.752 70.0065ZM6.04453 60.731V59.731H5.04453V60.731H6.04453ZM21.0341 70.7333L21.9818 70.4141L21.7525 69.7333H21.0341V70.7333ZM16.5259 70.7333V69.7333H15.8075L15.5782 70.4141L16.5259 70.7333ZM15.8032 72.8791V73.8791H16.5216L16.7508 73.1983L15.8032 72.8791ZM12.7231 72.8791L11.7821 72.5406L11.3005 73.8791H12.7231V72.8791ZM17.0937 60.731V59.731H16.3907L16.1527 60.3924L17.0937 60.731ZM20.5007 60.731L21.4417 60.3924L21.2037 59.731H20.5007V60.731ZM24.8713 72.8791V73.8791H26.2939L25.8123 72.5406L24.8713 72.8791ZM21.7568 72.8791L20.8091 73.1983L21.0384 73.8791H21.7568V72.8791ZM20.277 68.449V69.449H21.6688L21.2248 68.13L20.277 68.449ZM18.78 64.0016L19.7277 63.6826L18.7745 60.8507L17.8311 63.6859L18.78 64.0016ZM17.3002 68.449L16.3513 68.1333L15.9135 69.449H17.3002V68.449ZM37.0765 66.5801L37.9502 67.0666L37.9542 67.0592L37.0765 66.5801ZM35.5967 67.9818L35.1232 67.101L35.1232 67.101L35.5967 67.9818ZM31.2949 68.5182V67.5182H30.2949V68.5182H31.2949ZM31.2949 72.8791V73.8791H32.2949V72.8791H31.2949ZM28.3524 72.8791H27.3524V73.8791H28.3524V72.8791ZM28.3524 60.731V59.731H27.3524V60.731H28.3524ZM35.5623 61.2328L36.0115 60.3394L36.0115 60.3394L35.5623 61.2328ZM31.2949 63.1191V62.1191H30.2949V63.1191H31.2949ZM31.2949 66.1648H30.2949V67.1648H31.2949V66.1648ZM48.7606 70.7333L49.7083 70.4141L49.479 69.7333H48.7606V70.7333ZM44.2523 70.7333V69.7333H43.5339L43.3046 70.4141L44.2523 70.7333ZM43.5296 72.8791V73.8791H44.248L44.4773 73.1983L43.5296 72.8791ZM40.4495 72.8791L39.5086 72.5406L39.027 73.8791H40.4495V72.8791ZM44.8201 60.731V59.731H44.1172L43.8792 60.3924L44.8201 60.731ZM48.2272 60.731L49.1681 60.3924L48.9301 59.731H48.2272V60.731ZM52.5978 72.8791V73.8791H54.0203L53.5387 72.5406L52.5978 72.8791ZM49.4833 72.8791L48.5356 73.1983L48.7649 73.8791H49.4833V72.8791ZM48.0035 68.449V69.449H49.3952L48.9512 68.13L48.0035 68.449ZM46.5064 64.0016L47.4542 63.6826L46.5009 60.8507L45.5576 63.6859L46.5064 64.0016ZM45.0266 68.449L44.0778 68.1333L43.64 69.449H45.0266V68.449ZM66.885 72.8791V73.8791H67.885V72.8791H66.885ZM63.9426 72.8791L63.1067 73.4281L63.4029 73.8791H63.9426V72.8791ZM59.0213 65.386L59.8572 64.8371L58.0213 62.0418V65.386H59.0213ZM59.0213 72.8791V73.8791H60.0213V72.8791H59.0213ZM56.0789 72.8791H55.0789V73.8791H56.0789V72.8791ZM56.0789 60.731V59.731H55.0789V60.731H56.0789ZM59.0213 60.731L59.8583 60.1838L59.5623 59.731H59.0213V60.731ZM63.9426 68.2587L63.1056 68.8059L64.9426 71.6158V68.2587H63.9426ZM63.9426 60.731V59.731H62.9426V60.731H63.9426ZM66.885 60.731H67.885V59.731H66.885V60.731ZM74.1112 63.1018V62.1018H73.1112V63.1018H74.1112ZM74.1112 65.5591H73.1112V66.5591H74.1112V65.5591ZM78.0517 65.5591H79.0517V64.5591H78.0517V65.5591ZM78.0517 67.8434V68.8434H79.0517V67.8434H78.0517ZM74.1112 67.8434V66.8434H73.1112V67.8434H74.1112ZM74.1112 70.5083H73.1112V71.5083H74.1112V70.5083ZM78.5679 70.5083H79.5679V69.5083H78.5679V70.5083ZM78.5679 72.8791V73.8791H79.5679V72.8791H78.5679ZM71.1688 72.8791H70.1688V73.8791H71.1688V72.8791ZM71.1688 60.731V59.731H70.1688V60.731H71.1688ZM78.5679 60.731H79.5679V59.731H78.5679V60.731ZM78.5679 63.1018V64.1018H79.5679V63.1018H78.5679ZM84.6251 72.5676L84.244 73.4922L84.244 73.4922L84.6251 72.5676ZM82.9388 71.287L82.1312 71.877L82.1391 71.8875L82.9388 71.287ZM82.2849 69.2451V68.2451H81.2557L81.2853 69.2739L82.2849 69.2451ZM85.4166 69.2451L86.4114 69.1436L86.3198 68.2451H85.4166V69.2451ZM85.8812 70.2834L85.2048 71.0199L85.2138 71.0281L85.2229 71.0361L85.8812 70.2834ZM87.9461 70.3353L88.5597 71.1249L88.5707 71.1163L88.5814 71.1075L87.9461 70.3353ZM88.0149 68.7432L87.3058 69.4483L87.3158 69.4584L87.3262 69.4683L88.0149 68.7432ZM87.275 68.2587L86.8703 69.1731L86.8769 69.176L86.8835 69.1788L87.275 68.2587ZM86.0361 67.826L85.7394 68.7811L85.7491 68.784L86.0361 67.826ZM82.8527 66.0263L83.652 65.4254L83.652 65.4254L82.8527 66.0263ZM83.541 61.527L84.1556 62.3159L84.1625 62.3105L83.541 61.527ZM89.9421 61.527L89.3206 62.3105L89.3275 62.3159L89.9421 61.527ZM91.2498 64.192V65.192H92.3013L92.2486 64.1418L91.2498 64.192ZM88.0665 64.192L87.0682 64.2504L87.1233 65.192H88.0665V64.192ZM87.6363 63.2748L86.978 64.0276L86.9876 64.0359L86.9973 64.044L87.6363 63.2748ZM85.7607 63.2229L86.407 63.986L86.4185 63.9763L86.4296 63.9663L85.7607 63.2229ZM85.9844 64.9534L86.4971 64.0948L86.4971 64.0948L85.9844 64.9534ZM87.7052 65.6629L88.0272 64.7161L88.0146 64.712L87.7052 65.6629ZM89.598 66.4243L89.1487 67.3178L89.1571 67.3219L89.598 66.4243ZM90.8713 67.4799L90.0792 68.0903L90.0792 68.0903L90.8713 67.4799ZM90.8713 71.1486L90.0248 70.6161L90.0209 70.6223L90.0171 70.6286L90.8713 71.1486ZM89.357 72.4984L88.9078 71.605L88.9078 71.605L89.357 72.4984ZM98.3088 63.1018V62.1018H97.3088V63.1018H98.3088ZM98.3088 65.5591H97.3088V66.5591H98.3088V65.5591ZM102.249 65.5591H103.249V64.5591H102.249V65.5591ZM102.249 67.8434V68.8434H103.249V67.8434H102.249ZM98.3088 67.8434V66.8434H97.3088V67.8434H98.3088ZM98.3088 70.5083H97.3088V71.5083H98.3088V70.5083ZM102.765 70.5083H103.765V69.5083H102.765V70.5083ZM102.765 72.8791V73.8791H103.765V72.8791H102.765ZM95.3664 72.8791H94.3664V73.8791H95.3664V72.8791ZM95.3664 60.731V59.731H94.3664V60.731H95.3664ZM102.765 60.731H103.765V59.731H102.765V60.731ZM102.765 63.1018V64.1018H103.765V63.1018H102.765ZM112.899 63.5863L113.775 64.0699L113.777 64.0653L112.899 63.5863ZM115.05 61.3886L115.543 62.259L115.546 62.2569L115.05 61.3886ZM121.881 61.7347L122.479 60.9331L122.479 60.9331L121.881 61.7347ZM123.929 64.8496V65.8496H125.224L124.897 64.5964L123.929 64.8496ZM120.694 64.8496L119.791 65.2783L120.062 65.8496H120.694V64.8496ZM119.662 63.6901L119.142 64.5444L119.152 64.5502L119.662 63.6901ZM115.962 64.2439L116.711 64.907L116.711 64.907L115.962 64.2439ZM119.662 69.8853L119.152 69.0252L119.142 69.0312L119.662 69.8853ZM120.694 68.7259V67.7259H120.062L119.791 68.2972L120.694 68.7259ZM123.929 68.7259L124.897 68.9791L125.224 67.7259H123.929V68.7259ZM121.881 71.8408L122.473 72.6468L122.479 72.6424L121.881 71.8408ZM115.05 72.1869L114.55 73.0526L114.556 73.0563L114.562 73.0599L115.05 72.1869ZM112.899 69.9892L113.775 69.5056L113.775 69.5056L112.899 69.9892ZM130.773 60.731H131.773V59.731H130.773V60.731ZM131.306 69.6777L130.565 70.3493L130.565 70.3493L131.306 69.6777ZM134.455 69.6777L135.185 70.361L135.185 70.361L134.455 69.6777ZM135.006 60.731V59.731H134.006V60.731H135.006ZM137.948 60.731H138.948V59.731H137.948V60.731ZM137.26 70.7333L138.113 71.2552L138.113 71.2552L137.26 70.7333ZM135.401 72.4292L134.963 71.5305L134.958 71.5331L135.401 72.4292ZM130.257 72.4465L129.802 73.3371L129.81 73.3413L129.818 73.3453L130.257 72.4465ZM128.484 70.7506L127.616 71.2474L127.62 71.2532L128.484 70.7506ZM127.83 60.731V59.731H126.83V60.731H127.83ZM145.108 60.731H146.108V59.731H145.108V60.731ZM145.108 72.8791V73.8791H146.108V72.8791H145.108ZM142.165 72.8791H141.165V73.8791H142.165V72.8791ZM142.165 60.731V59.731H141.165V60.731H142.165ZM151.387 72.5676L151.006 73.4922L151.006 73.4922L151.387 72.5676ZM149.701 71.287L148.893 71.877L148.901 71.8875L149.701 71.287ZM149.047 69.2451V68.2451H148.018L148.047 69.2739L149.047 69.2451ZM152.178 69.2451L153.173 69.1436L153.082 68.2451H152.178V69.2451ZM152.643 70.2834L151.967 71.0199L151.976 71.0281L151.985 71.0361L152.643 70.2834ZM154.708 70.3353L155.322 71.1249L155.333 71.1163L155.343 71.1075L154.708 70.3353ZM154.777 68.7432L154.068 69.4483L154.078 69.4584L154.088 69.4683L154.777 68.7432ZM154.037 68.2587L153.632 69.1731L153.639 69.176L153.645 69.1788L154.037 68.2587ZM152.798 67.826L152.501 68.7811L152.511 68.784L152.798 67.826ZM149.615 66.0263L150.414 65.4254L150.414 65.4254L149.615 66.0263ZM150.303 61.527L150.917 62.3159L150.924 62.3105L150.303 61.527ZM156.704 61.527L156.083 62.3105L156.089 62.3159L156.704 61.527ZM158.012 64.192V65.192H159.063L159.01 64.1418L158.012 64.192ZM154.828 64.192L153.83 64.2504L153.885 65.192H154.828V64.192ZM154.398 63.2748L153.74 64.0276L153.749 64.0359L153.759 64.044L154.398 63.2748ZM152.523 63.2229L153.169 63.986L153.18 63.9763L153.192 63.9663L152.523 63.2229ZM152.746 64.9534L153.259 64.0948L153.259 64.0948L152.746 64.9534ZM154.467 65.6629L154.789 64.7161L154.776 64.712L154.467 65.6629ZM156.36 66.4243L155.911 67.3178L155.919 67.3219L156.36 66.4243ZM157.633 67.4799L156.841 68.0903L156.841 68.0903L157.633 67.4799ZM157.633 71.1486L156.787 70.6161L156.783 70.6223L156.779 70.6286L157.633 71.1486ZM156.119 72.4984L155.67 71.605L155.67 71.605L156.119 72.4984ZM165.071 60.731H166.071V59.731H165.071V60.731ZM165.071 72.8791V73.8791H166.071V72.8791H165.071ZM162.128 72.8791H161.128V73.8791H162.128V72.8791ZM162.128 60.731V59.731H161.128V60.731H162.128ZM180.16 72.8791V73.8791H181.16V72.8791H180.16ZM177.218 72.8791L176.382 73.4281L176.678 73.8791H177.218V72.8791ZM172.296 65.386L173.132 64.8371L171.296 62.0418V65.386H172.296ZM172.296 72.8791V73.8791H173.296V72.8791H172.296ZM169.354 72.8791H168.354V73.8791H169.354V72.8791ZM169.354 60.731V59.731H168.354V60.731H169.354ZM172.296 60.731L173.133 60.1838L172.837 59.731H172.296V60.731ZM177.218 68.2587L176.381 68.8059L178.218 71.6158V68.2587H177.218ZM177.218 60.731V59.731H176.218V60.731H177.218ZM180.16 60.731H181.16V59.731H180.16V60.731ZM187.386 63.1018V62.1018H186.386V63.1018H187.386ZM187.386 65.5591H186.386V66.5591H187.386V65.5591ZM191.327 65.5591H192.327V64.5591H191.327V65.5591ZM191.327 67.8434V68.8434H192.327V67.8434H191.327ZM187.386 67.8434V66.8434H186.386V67.8434H187.386ZM187.386 70.5083H186.386V71.5083H187.386V70.5083ZM191.843 70.5083H192.843V69.5083H191.843V70.5083ZM191.843 72.8791V73.8791H192.843V72.8791H191.843ZM184.444 72.8791H183.444V73.8791H184.444V72.8791ZM184.444 60.731V59.731H183.444V60.731H184.444ZM191.843 60.731H192.843V59.731H191.843V60.731ZM191.843 63.1018V64.1018H192.843V63.1018H191.843ZM33.0342 3.99138L19.4651 30.2752L21.2422 31.1927L34.8113 4.90884L33.0342 3.99138ZM19.3537 30.734V45.6855H21.3537V30.734H19.3537ZM20.3537 44.6855H13.6281V46.6855H20.3537V44.6855ZM14.6281 45.6855V30.734H12.6281V45.6855H14.6281ZM14.5159 30.2737L0.887762 3.9898L-0.887762 4.91041L12.7403 31.1943L14.5159 30.2737ZM0 5.45011H7.4925V3.45011H0V5.45011ZM6.5873 4.87508L16.0857 25.1071L17.8961 24.2572L8.39771 4.02514L6.5873 4.87508ZM17.8961 25.1071L27.3945 4.87508L25.584 4.02514L16.0857 24.2572L17.8961 25.1071ZM26.4892 5.45011H33.9228V3.45011H26.4892V5.45011ZM53.3601 45.2195C50.4489 45.2195 47.8463 44.5644 45.5294 43.2699L44.5539 45.0159C47.1928 46.4902 50.1358 47.2195 53.3601 47.2195V45.2195ZM45.5399 43.2759C43.2213 41.9434 41.4028 40.0977 40.0738 37.7216L38.3283 38.6979C39.8311 41.3847 41.9063 43.4944 44.5434 45.0099L45.5399 43.2759ZM40.077 37.7273C38.7537 35.3244 38.0772 32.5283 38.0772 29.31H36.0772C36.0772 32.816 36.8166 35.953 38.3251 38.6921L40.077 37.7273ZM38.0772 29.31C38.0772 26.1382 38.7703 23.365 40.1303 20.9622L38.3898 19.977C36.8393 22.7163 36.0772 25.8367 36.0772 29.31H38.0772ZM40.1303 20.9622C41.4969 18.5478 43.3507 16.7051 45.7006 15.4127L44.7368 13.6602C42.0523 15.1367 39.9337 17.2494 38.3898 19.977L40.1303 20.9622ZM45.7006 15.4127C48.0582 14.116 50.7023 13.4599 53.6551 13.4599V11.4599C50.3936 11.4599 47.4135 12.1881 44.7368 13.6602L45.7006 15.4127ZM53.6551 13.4599C56.6079 13.4599 59.252 14.116 61.6096 15.4127L62.5734 13.6602C59.8967 12.1881 56.9166 11.4599 53.6551 11.4599V13.4599ZM61.6096 15.4127C63.9595 16.7051 65.8133 18.5478 67.1799 20.9622L68.9204 19.977C67.3765 17.2494 65.2579 15.1367 62.5734 13.6602L61.6096 15.4127ZM67.1799 20.9622C68.5399 23.365 69.233 26.1382 69.233 29.31H71.233C71.233 25.8367 70.4709 22.7163 68.9204 19.977L67.1799 20.9622ZM69.233 29.31C69.233 32.4772 68.5224 35.2468 67.1266 37.6478L68.8557 38.653C70.4491 35.912 71.233 32.7879 71.233 29.31H69.233ZM67.1266 37.6478C65.7231 40.0623 63.8102 41.9301 61.3746 43.2661L62.3365 45.0196C65.0926 43.5078 67.2701 41.3806 68.8557 38.653L67.1266 37.6478ZM61.3794 43.2635C58.9791 44.5633 56.3127 45.2195 53.3601 45.2195V47.2195C56.6218 47.2195 59.619 46.4912 62.3317 45.0222L61.3794 43.2635ZM53.3601 41.3457C55.2585 41.3457 57.0386 40.888 58.6836 39.9738L57.712 38.2256C56.3679 38.9727 54.9228 39.3457 53.3601 39.3457V41.3457ZM58.674 39.9791C60.388 39.0509 61.7567 37.6638 62.784 35.8558L61.0451 34.8678C60.1845 36.3824 59.0754 37.4872 57.7216 38.2204L58.674 39.9791ZM62.784 35.8558C63.8319 34.0116 64.3305 31.815 64.3305 29.31H62.3305C62.3305 31.5515 61.8851 33.3895 61.0451 34.8678L62.784 35.8558ZM64.3305 29.31C64.3305 26.8126 63.8545 24.6369 62.8469 22.8304L61.1002 23.8047C61.9018 25.2416 62.3305 27.0609 62.3305 29.31H64.3305ZM62.8518 22.8393C61.8665 21.0298 60.5382 19.6379 58.8606 18.7056L57.889 20.4537C59.2006 21.1826 60.2714 22.2826 61.0953 23.7957L62.8518 22.8393ZM58.8606 18.7056C57.2155 17.7913 55.4355 17.3337 53.5371 17.3337V19.3337C55.0998 19.3337 56.5449 19.7067 57.889 20.4537L58.8606 18.7056ZM53.5371 17.3337C51.6387 17.3337 49.8587 17.7913 48.2136 18.7056L49.1852 20.4537C50.5293 19.7067 51.9744 19.3337 53.5371 19.3337V17.3337ZM48.2037 18.7112C46.5626 19.6479 45.2749 21.0448 44.3317 22.8556L46.1056 23.7795C46.893 22.2677 47.9258 21.1726 49.1952 20.4481L48.2037 18.7112ZM44.3364 22.8468C43.3746 24.6495 42.9207 26.819 42.9207 29.31H44.9207C44.9207 27.0545 45.3322 25.2291 46.1009 23.7883L44.3364 22.8468ZM42.9207 29.31C42.9207 32.9933 43.8485 35.9944 45.8371 38.1721L47.314 36.8234C45.7629 35.1248 44.9207 32.6674 44.9207 29.31H42.9207ZM45.8516 38.1876C47.8568 40.2919 50.3834 41.3457 53.3601 41.3457V39.3457C50.9092 39.3457 48.9127 38.5008 47.2995 36.8079L45.8516 38.1876ZM90.9816 45.2195C88.0704 45.2195 85.4678 44.5644 83.1509 43.2699L82.1755 45.0159C84.8143 46.4902 87.7573 47.2195 90.9816 47.2195V45.2195ZM83.1615 43.2759C80.8429 41.9434 79.0244 40.0977 77.6953 37.7216L75.9498 38.6979C77.4526 41.3847 79.5279 43.4944 82.1649 45.0099L83.1615 43.2759ZM77.6985 37.7273C76.3752 35.3244 75.6987 32.5283 75.6987 29.31H73.6987C73.6987 32.816 74.4382 35.953 75.9466 38.6921L77.6985 37.7273ZM75.6987 29.31C75.6987 26.1382 76.3918 23.365 77.7519 20.9622L76.0113 19.977C74.4609 22.7163 73.6987 25.8367 73.6987 29.31H75.6987ZM77.7519 20.9622C79.1185 18.5478 80.9722 16.7051 83.3221 15.4127L82.3583 13.6602C79.6738 15.1367 77.5552 17.2494 76.0113 19.977L77.7519 20.9622ZM83.3221 15.4127C85.6797 14.116 88.3239 13.4599 91.2766 13.4599V11.4599C88.0151 11.4599 85.035 12.1881 82.3583 13.6602L83.3221 15.4127ZM91.2766 13.4599C94.2294 13.4599 96.8735 14.116 99.2312 15.4127L100.195 13.6602C97.5183 12.1881 94.5381 11.4599 91.2766 11.4599V13.4599ZM99.2312 15.4127C101.581 16.7051 103.435 18.5478 104.801 20.9622L106.542 19.977C104.998 17.2494 102.879 15.1367 100.195 13.6602L99.2312 15.4127ZM104.801 20.9622C106.161 23.365 106.855 26.1382 106.855 29.31H108.855C108.855 25.8367 108.092 22.7163 106.542 19.977L104.801 20.9622ZM106.855 29.31C106.855 32.4772 106.144 35.2468 104.748 37.6478L106.477 38.653C108.071 35.912 108.855 32.7879 108.855 29.31H106.855ZM104.748 37.6478C103.345 40.0623 101.432 41.9301 98.9961 43.2661L99.958 45.0196C102.714 43.5078 104.892 41.3806 106.477 38.653L104.748 37.6478ZM99.0009 43.2635C96.6006 44.5633 93.9343 45.2195 90.9816 45.2195V47.2195C94.2433 47.2195 97.2405 46.4912 99.9533 45.0222L99.0009 43.2635ZM90.9816 41.3457C92.88 41.3457 94.6601 40.888 96.3051 39.9738L95.3335 38.2256C93.9894 38.9727 92.5443 39.3457 90.9816 39.3457V41.3457ZM96.2955 39.9791C98.0095 39.0509 99.3783 37.6638 100.406 35.8558L98.6666 34.8678C97.806 36.3824 96.6969 37.4872 95.3431 38.2204L96.2955 39.9791ZM100.406 35.8558C101.453 34.0116 101.952 31.815 101.952 29.31H99.952C99.952 31.5515 99.5066 33.3895 98.6666 34.8678L100.406 35.8558ZM101.952 29.31C101.952 26.8126 101.476 24.6369 100.468 22.8304L98.7218 23.8047C99.5233 25.2416 99.952 27.0609 99.952 29.31H101.952ZM100.473 22.8393C99.488 21.0298 98.1597 19.6379 96.4821 18.7056L95.5105 20.4537C96.8221 21.1826 97.8929 22.2826 98.7168 23.7957L100.473 22.8393ZM96.4821 18.7056C94.8371 17.7913 93.057 17.3337 91.1586 17.3337V19.3337C92.7213 19.3337 94.1664 19.7067 95.5105 20.4537L96.4821 18.7056ZM91.1586 17.3337C89.2602 17.3337 87.4802 17.7913 85.8352 18.7056L86.8067 20.4537C88.1508 19.7067 89.5959 19.3337 91.1586 19.3337V17.3337ZM85.8252 18.7112C84.1841 19.6479 82.8964 21.0448 81.9533 22.8556L83.7271 23.7795C84.5145 22.2677 85.5474 21.1726 86.8167 20.4481L85.8252 18.7112ZM81.9579 22.8468C80.9961 24.6495 80.5423 26.819 80.5423 29.31H82.5423C82.5423 27.0545 82.9537 25.2291 83.7225 23.7883L81.9579 22.8468ZM80.5423 29.31C80.5423 32.9933 81.47 35.9944 83.4587 38.1721L84.9355 36.8234C83.3844 35.1248 82.5423 32.6674 82.5423 29.31H80.5423ZM83.4732 38.1876C85.4784 40.2919 88.005 41.3457 90.9816 41.3457V39.3457C88.5307 39.3457 86.5343 38.5008 84.921 36.8079L83.4732 38.1876ZM126.302 45.2195C123.866 45.2195 121.707 44.7865 119.806 43.9412L118.993 45.7685C121.183 46.7428 123.626 47.2195 126.302 47.2195V45.2195ZM119.828 43.951C117.951 43.0628 116.493 41.8954 115.423 40.4598L113.819 41.6555C115.109 43.3843 116.837 44.7483 118.972 45.7588L119.828 43.951ZM115.43 40.4693C114.365 39.0053 113.803 37.396 113.732 35.6187L111.734 35.6982C111.821 37.8764 112.518 39.8665 113.812 41.646L115.43 40.4693ZM112.733 36.6585H119.695V34.6585H112.733V36.6585ZM118.698 35.7434C118.842 37.426 119.643 38.8347 121.015 39.9382L122.269 38.3799C121.28 37.5847 120.784 36.6598 120.691 35.5736L118.698 35.7434ZM121.044 39.9605C122.467 41.0222 124.202 41.5237 126.184 41.5237V39.5237C124.549 39.5237 123.255 39.1154 122.24 38.3576L121.044 39.9605ZM126.184 41.5237C128.178 41.5237 129.865 41.1511 131.121 40.2764L129.979 38.635C129.19 39.1843 127.967 39.5237 126.184 39.5237V41.5237ZM131.128 40.272C132.413 39.3621 133.143 38.1266 133.143 36.6078H131.143C131.143 37.3831 130.811 38.0463 129.972 38.6394L131.128 40.272ZM133.143 36.6078C133.143 35.8276 132.953 35.0992 132.539 34.4617C132.129 33.8285 131.536 33.3442 130.822 32.9851L129.924 34.7719C130.39 35.0062 130.682 35.2734 130.861 35.5499C131.038 35.8222 131.143 36.1618 131.143 36.6078H133.143ZM130.835 32.9914C129.599 32.3488 127.689 31.674 125.159 30.9583L124.614 32.8828C127.119 33.5912 128.866 34.2217 129.912 34.7657L130.835 32.9914ZM125.152 30.9566C122.735 30.29 120.791 29.6498 119.309 29.0382L118.546 30.8871C120.132 31.5413 122.161 32.2063 124.621 32.8846L125.152 30.9566ZM119.309 29.0382C117.925 28.4669 116.713 27.5917 115.669 26.3974L114.163 27.7134C115.401 29.1297 116.863 30.1926 118.546 30.8871L119.309 29.0382ZM115.68 26.4106C114.767 25.3273 114.264 23.8544 114.264 21.8936H112.264C112.264 24.2046 112.863 26.1729 114.152 27.7003L115.68 26.4106ZM114.264 21.8936C114.264 20.3641 114.709 18.9857 115.61 17.7304L113.986 16.5637C112.842 18.1564 112.264 19.9423 112.264 21.8936H114.264ZM115.618 17.7198C116.52 16.4286 117.82 15.3896 119.567 14.6211L118.761 12.7905C116.732 13.6833 115.121 14.9385 113.978 16.5743L115.618 17.7198ZM119.56 14.6242C121.341 13.8562 123.405 13.4599 125.771 13.4599V11.4599C123.182 11.4599 120.841 11.8941 118.768 12.7875L119.56 14.6242ZM125.771 13.4599C129.295 13.4599 132.015 14.3615 134.034 16.0709L135.326 14.5447C132.861 12.4568 129.642 11.4599 125.771 11.4599V13.4599ZM134.048 16.083C136.085 17.7431 137.194 20.0171 137.339 23.01L139.336 22.9131C139.167 19.419 137.837 16.5906 135.312 14.5326L134.048 16.083ZM138.338 21.9615H131.612V23.9615H138.338V21.9615ZM132.609 22.8812C132.471 21.1679 131.764 19.7427 130.476 18.6875L129.208 20.2345C130.044 20.9196 130.517 21.8282 130.615 23.0419L132.609 22.8812ZM130.476 18.6875C129.185 17.6299 127.502 17.1557 125.535 17.1557V19.1557C127.188 19.1557 128.375 19.5517 129.208 20.2345L130.476 18.6875ZM125.535 17.1557C123.66 17.1557 122.066 17.5083 120.884 18.3498L122.045 19.9788C122.751 19.4755 123.871 19.1557 125.535 19.1557V17.1557ZM120.884 18.3498C119.692 19.1996 119.049 20.386 119.049 21.8342H121.049C121.049 21.0675 121.35 20.4739 122.045 19.9788L120.884 18.3498ZM119.049 21.8342C119.049 22.9779 119.476 23.9735 120.307 24.7571L121.679 23.3019C121.251 22.8988 121.049 22.4309 121.049 21.8342H119.049ZM120.307 24.7571C121.039 25.448 121.919 25.9871 122.927 26.384L123.66 24.5229C122.859 24.2078 122.204 23.7976 121.679 23.3019L120.307 24.7571ZM122.963 26.3974C123.894 26.7229 125.252 27.1442 127.026 27.6597L127.584 25.7391C125.819 25.2263 124.502 24.8169 123.624 24.5095L122.963 26.3974ZM127.046 27.6653C129.377 28.2903 131.248 28.9267 132.677 29.5693L133.497 27.7454C131.936 27.0431 129.953 26.3743 127.564 25.7336L127.046 27.6653ZM132.705 29.5818C134.094 30.1548 135.285 31.0116 136.285 32.1617L137.794 30.8489C136.592 29.4674 135.147 28.4257 133.468 27.733L132.705 29.5818ZM136.285 32.1617C137.197 33.2095 137.715 34.6452 137.751 36.5672L139.75 36.5297C139.708 34.2589 139.085 32.3325 137.794 30.8489L136.285 32.1617ZM137.751 36.5485C137.751 38.2116 137.297 39.6712 136.397 40.9595L138.036 42.1051C139.181 40.4664 139.751 38.6034 139.751 36.5485H137.751ZM136.397 40.9595C135.495 42.2507 134.195 43.2897 132.448 44.0582L133.254 45.8888C135.283 44.9961 136.893 43.7409 138.036 42.1051L136.397 40.9595ZM132.441 44.0614C130.749 44.8219 128.711 45.2195 126.302 45.2195V47.2195C128.928 47.2195 131.256 46.7865 133.261 45.8857L132.441 44.0614ZM162.832 13.4599C165.161 13.4599 167.193 13.9605 168.954 14.9365L169.924 13.1871C167.831 12.0271 165.457 11.4599 162.832 11.4599V13.4599ZM168.962 14.9406C170.744 15.9084 172.141 17.3415 173.156 19.2734L174.926 18.3433C173.738 16.0824 172.067 14.3511 169.916 13.183L168.962 14.9406ZM173.162 19.2863C174.206 21.2045 174.752 23.5632 174.752 26.4028H176.752C176.752 23.3092 176.157 20.605 174.919 18.3304L173.162 19.2863ZM174.752 26.4028V45.6855H176.752V26.4028H174.752ZM175.752 44.6855H169.085V46.6855H175.752V44.6855ZM170.085 45.6855V27.4114H168.085V45.6855H170.085ZM170.085 27.4114C170.085 24.3273 169.317 21.8098 167.63 20.0207L166.175 21.3931C167.398 22.6894 168.085 24.6414 168.085 27.4114H170.085ZM167.638 20.03C165.961 18.2064 163.688 17.3337 160.944 17.3337V19.3337C163.233 19.3337 164.933 20.0432 166.166 21.3839L167.638 20.03ZM160.944 17.3337C158.198 17.3337 155.913 18.2063 154.199 20.0202L155.653 21.3936C156.929 20.0432 158.655 19.3337 160.944 19.3337V17.3337ZM154.199 20.0207C152.511 21.8098 151.743 24.3273 151.743 27.4114H153.743C153.743 24.6414 154.431 22.6894 155.653 21.3931L154.199 20.0207ZM151.743 27.4114V45.6855H153.743V27.4114H151.743ZM152.743 44.6855H146.018V46.6855H152.743V44.6855ZM147.018 45.6855V1.78019H145.018V45.6855H147.018ZM146.018 2.78019H152.743V0.780191H146.018V2.78019ZM151.743 1.78019V16.7911H153.743V1.78019H151.743ZM153.515 17.4269C154.55 16.1709 155.855 15.1963 157.448 14.5044L156.652 12.6699C154.784 13.4811 153.218 14.6425 151.971 16.1552L153.515 17.4269ZM157.441 14.5076C159.077 13.8129 160.87 13.4599 162.832 13.4599V11.4599C160.624 11.4599 158.563 11.8584 156.659 12.6667L157.441 14.5076ZM187.752 7.66265C186.787 7.66265 186.023 7.34502 185.394 6.71158L183.975 8.12178C184.997 9.14963 186.279 9.66265 187.752 9.66265V7.66265ZM185.394 6.71158C184.763 6.07785 184.446 5.30716 184.446 4.33144H182.446C182.446 5.8081 182.954 7.09423 183.975 8.12178L185.394 6.71158ZM184.446 4.33144C184.446 3.35573 184.763 2.58504 185.394 1.95131L183.975 0.541107C182.954 1.56866 182.446 2.85479 182.446 4.33144H184.446ZM185.394 1.95131C186.023 1.31787 186.787 1.00024 187.752 1.00024V-0.999756C186.279 -0.999756 184.997 -0.486738 183.975 0.541108L185.394 1.95131ZM187.752 1.00024C188.668 1.00024 189.415 1.31097 190.052 1.95131L191.47 0.541108C190.455 -0.479841 189.196 -0.999756 187.752 -0.999756V1.00024ZM190.052 1.95131C190.682 2.58504 191 3.35573 191 4.33144H193C193 2.85479 192.492 1.56866 191.47 0.541107L190.052 1.95131ZM191 4.33144C191 5.30716 190.682 6.07785 190.052 6.71158L191.47 8.12178C192.492 7.09423 193 5.8081 193 4.33144H191ZM190.052 6.71158C189.415 7.35192 188.668 7.66265 187.752 7.66265V9.66265C189.196 9.66265 190.455 9.14273 191.47 8.12178L190.052 6.71158ZM190.056 12.9938V45.6855H192.056V12.9938H190.056ZM191.056 44.6855H184.331V46.6855H191.056V44.6855ZM185.331 45.6855V12.9938H183.331V45.6855H185.331ZM184.331 13.9938H191.056V11.9938H184.331V13.9938ZM7.98696 60.731V69.0028H9.98696V60.731H7.98696ZM7.98696 69.0028C7.98696 70.0911 7.68557 70.7854 7.2112 71.2398L8.59461 72.6841C9.56564 71.7541 9.98696 70.4756 9.98696 69.0028H7.98696ZM7.20545 71.2453C6.72114 71.7167 6.02967 72.0002 5.01209 72.0002V74.0002C6.42647 74.0002 7.6622 73.5916 8.60036 72.6786L7.20545 71.2453ZM5.01209 72.0002C3.93911 72.0002 3.18264 71.7001 2.6363 71.1835L1.26213 72.6366C2.25296 73.5736 3.53841 74.0002 5.01209 74.0002V72.0002ZM2.6363 71.1835C2.11745 70.6928 1.79633 69.9531 1.79633 68.8124H-0.203668C-0.203668 70.3482 0.243804 71.6736 1.26213 72.6366L2.6363 71.1835ZM0.796332 69.8124H3.72155V67.8124H0.796332V69.8124ZM2.72155 68.8124C2.72155 69.4345 2.84487 70.0756 3.24209 70.586L4.82048 69.3577C4.80472 69.3375 4.72155 69.2056 4.72155 68.8124H2.72155ZM3.25557 70.603C3.68905 71.1358 4.29929 71.3526 4.92606 71.3526V69.3526C4.83881 69.3526 4.80421 69.3384 4.80135 69.3372C4.7998 69.3366 4.80199 69.3374 4.80553 69.3401C4.80904 69.3427 4.80952 69.3439 4.807 69.3408L3.25557 70.603ZM4.92606 71.3526C5.5183 71.3526 6.09638 71.1482 6.51575 70.652L4.98826 69.361C4.98811 69.3611 4.98891 69.3602 4.99073 69.3585C4.99256 69.3568 4.99501 69.3547 4.998 69.3525C5.00449 69.3477 5.01013 69.3449 5.01278 69.3438C5.01857 69.3413 4.99607 69.3526 4.92606 69.3526V71.3526ZM6.51575 70.652C6.91925 70.1746 7.04453 69.5733 7.04453 69.0028H5.04453C5.04453 69.309 4.97478 69.3769 4.98826 69.361L6.51575 70.652ZM7.04453 69.0028V60.731H5.04453V69.0028H7.04453ZM6.04453 61.731H8.98696V59.731H6.04453V61.731ZM21.0341 69.7333H16.5259V71.7333H21.0341V69.7333ZM15.5782 70.4141L14.8555 72.5599L16.7508 73.1983L17.4736 71.0525L15.5782 70.4141ZM15.8032 71.8791H12.7231V73.8791H15.8032V71.8791ZM13.664 73.2176L18.0346 61.0695L16.1527 60.3924L11.7821 72.5406L13.664 73.2176ZM17.0937 61.731H20.5007V59.731H17.0937V61.731ZM19.5598 61.0695L23.9304 73.2176L25.8123 72.5406L21.4417 60.3924L19.5598 61.0695ZM24.8713 71.8791H21.7568V73.8791H24.8713V71.8791ZM22.7045 72.5599L21.9818 70.4141L20.0864 71.0525L20.8091 73.1983L22.7045 72.5599ZM21.2248 68.13L19.7277 63.6826L17.8323 64.3207L19.3293 68.768L21.2248 68.13ZM17.8311 63.6859L16.3513 68.1333L18.249 68.7647L19.7289 64.3174L17.8311 63.6859ZM17.3002 69.449H20.277V67.449H17.3002V69.449ZM36.5583 64.6419C36.5583 65.1869 36.4357 65.6669 36.1988 66.1009L37.9542 67.0592C38.3597 66.3165 38.5583 65.5045 38.5583 64.6419H36.5583ZM36.2028 66.0936C35.9874 66.4804 35.6451 66.8205 35.1232 67.101L36.0701 68.8626C36.8789 68.4279 37.5231 67.8335 37.9502 67.0666L36.2028 66.0936ZM35.1232 67.101C34.6412 67.3601 33.9891 67.5182 33.1188 67.5182V69.5182C34.2217 69.5182 35.2215 69.3188 36.0701 68.8626L35.1232 67.101ZM33.1188 67.5182H31.2949V69.5182H33.1188V67.5182ZM30.2949 68.5182V72.8791H32.2949V68.5182H30.2949ZM31.2949 71.8791H28.3524V73.8791H31.2949V71.8791ZM29.3524 72.8791V60.731H27.3524V72.8791H29.3524ZM28.3524 61.731H33.1188V59.731H28.3524V61.731ZM33.1188 61.731C33.9707 61.731 34.6219 61.8793 35.113 62.1262L36.0115 60.3394C35.172 59.9173 34.1941 59.731 33.1188 59.731V61.731ZM35.113 62.1262C35.6201 62.3812 35.9635 62.711 36.1888 63.1094L37.9298 62.125C37.4897 61.3467 36.8351 60.7536 36.0115 60.3394L35.113 62.1262ZM36.1888 63.1094C36.4263 63.5294 36.5583 64.0308 36.5583 64.6419H38.5583C38.5583 63.7302 38.3576 62.8818 37.9298 62.125L36.1888 63.1094ZM32.8951 67.1648C33.5955 67.1648 34.3118 67.0009 34.8452 66.4868L33.4573 65.0467C33.4401 65.0633 33.3189 65.1648 32.8951 65.1648V67.1648ZM34.8452 66.4868C35.3652 65.9856 35.5642 65.3213 35.5642 64.6419H33.5642C33.5642 64.9316 33.4879 65.0172 33.4573 65.0467L34.8452 66.4868ZM35.5642 64.6419C35.5642 63.9625 35.3652 63.2982 34.8452 62.7971L33.4573 64.2371C33.4879 64.2666 33.5642 64.3522 33.5642 64.6419H35.5642ZM34.8452 62.7971C34.3118 62.283 33.5956 62.1191 32.8951 62.1191V64.1191C33.3189 64.1191 33.4401 64.2205 33.4573 64.2371L34.8452 62.7971ZM32.8951 62.1191H31.2949V64.1191H32.8951V62.1191ZM30.2949 63.1191V66.1648H32.2949V63.1191H30.2949ZM31.2949 67.1648H32.8951V65.1648H31.2949V67.1648ZM48.7606 69.7333H44.2523V71.7333H48.7606V69.7333ZM43.3046 70.4141L42.5819 72.5599L44.4773 73.1983L45.2 71.0525L43.3046 70.4141ZM43.5296 71.8791H40.4495V73.8791H43.5296V71.8791ZM41.3905 73.2176L45.7611 61.0695L43.8792 60.3924L39.5086 72.5406L41.3905 73.2176ZM44.8201 61.731H48.2272V59.731H44.8201V61.731ZM47.2862 61.0695L51.6568 73.2176L53.5387 72.5406L49.1681 60.3924L47.2862 61.0695ZM52.5978 71.8791H49.4833V73.8791H52.5978V71.8791ZM50.431 72.5599L49.7083 70.4141L47.8129 71.0525L48.5356 73.1983L50.431 72.5599ZM48.9512 68.13L47.4542 63.6826L45.5587 64.3207L47.0557 68.768L48.9512 68.13ZM45.5576 63.6859L44.0778 68.1333L45.9755 68.7647L47.4553 64.3174L45.5576 63.6859ZM45.0266 69.449H48.0035V67.449H45.0266V69.449ZM66.885 71.8791H63.9426V73.8791H66.885V71.8791ZM64.7784 72.3301L59.8572 64.8371L58.1855 65.935L63.1067 73.4281L64.7784 72.3301ZM58.0213 65.386V72.8791H60.0213V65.386H58.0213ZM59.0213 71.8791H56.0789V73.8791H59.0213V71.8791ZM57.0789 72.8791V60.731H55.0789V72.8791H57.0789ZM56.0789 61.731H59.0213V59.731H56.0789V61.731ZM58.1843 61.2782L63.1056 68.8059L64.7796 67.7115L59.8583 60.1838L58.1843 61.2782ZM64.9426 68.2587V60.731H62.9426V68.2587H64.9426ZM63.9426 61.731H66.885V59.731H63.9426V61.731ZM65.885 60.731V72.8791H67.885V60.731H65.885ZM73.1112 63.1018V65.5591H75.1112V63.1018H73.1112ZM74.1112 66.5591H78.0517V64.5591H74.1112V66.5591ZM77.0517 65.5591V67.8434H79.0517V65.5591H77.0517ZM78.0517 66.8434H74.1112V68.8434H78.0517V66.8434ZM73.1112 67.8434V70.5083H75.1112V67.8434H73.1112ZM74.1112 71.5083H78.5679V69.5083H74.1112V71.5083ZM77.5679 70.5083V72.8791H79.5679V70.5083H77.5679ZM78.5679 71.8791H71.1688V73.8791H78.5679V71.8791ZM72.1688 72.8791V60.731H70.1688V72.8791H72.1688ZM71.1688 61.731H78.5679V59.731H71.1688V61.731ZM77.5679 60.731V63.1018H79.5679V60.731H77.5679ZM78.5679 62.1018H74.1112V64.1018H78.5679V62.1018ZM86.9997 72.0002C86.2256 72.0002 85.5666 71.8741 85.0061 71.6431L84.244 73.4922C85.0831 73.838 86.0072 74.0002 86.9997 74.0002V72.0002ZM85.0061 71.6431C84.4603 71.4181 84.0474 71.098 83.7384 70.6866L82.1391 71.8875C82.6791 72.6066 83.3903 73.1403 84.244 73.4922L85.0061 71.6431ZM83.7462 70.6972C83.4685 70.3169 83.3024 69.8389 83.2845 69.2162L81.2853 69.2739C81.3132 70.2433 81.5831 71.1266 82.1313 71.8769L83.7462 70.6972ZM82.2849 70.2451H85.4166V68.2451H82.2849V70.2451ZM84.4218 69.3465C84.4857 69.9738 84.7171 70.572 85.2048 71.0199L86.5575 69.5468C86.5176 69.5101 86.4392 69.4161 86.4114 69.1436L84.4218 69.3465ZM85.2229 71.0361C85.7056 71.4582 86.3005 71.6295 86.9136 71.6295V69.6295C86.6779 69.6295 86.5845 69.57 86.5395 69.5306L85.2229 71.0361ZM86.9136 71.6295C87.4918 71.6295 88.0777 71.4994 88.5597 71.1249L87.3324 69.5457C87.3097 69.5634 87.2073 69.6295 86.9136 69.6295V71.6295ZM88.5814 71.1075C89.0883 70.6904 89.3246 70.1119 89.3246 69.4873H87.3246C87.3246 69.5474 87.3144 69.5653 87.3168 69.5599C87.3176 69.5581 87.319 69.5558 87.3201 69.5543C87.3211 69.5531 87.319 69.5562 87.3107 69.5631L88.5814 71.1075ZM89.3246 69.4873C89.3246 68.9296 89.1204 68.4141 88.7036 68.0181L87.3262 69.4683C87.3314 69.4732 87.3319 69.4746 87.3301 69.472C87.3282 69.4693 87.3259 69.4652 87.324 69.4606C87.3221 69.4561 87.322 69.4544 87.3225 69.4572C87.3231 69.4603 87.3246 69.4698 87.3246 69.4873H89.3246ZM88.724 68.0381C88.4238 67.7362 88.0634 67.5074 87.6665 67.3385L86.8835 69.1788C87.0831 69.2638 87.216 69.358 87.3058 69.4483L88.724 68.0381ZM87.6796 67.3442C87.3358 67.1921 86.8762 67.0338 86.323 66.8681L85.7491 68.784C86.2743 68.9413 86.6405 69.0715 86.8703 69.1731L87.6796 67.3442ZM86.3327 66.871C85.5807 66.6375 84.9972 66.413 84.5669 66.2017L83.6852 67.9968C84.2415 68.27 84.9313 68.53 85.7395 68.781L86.3327 66.871ZM84.5669 66.2017C84.2255 66.034 83.9206 65.7826 83.652 65.4254L82.0534 66.6273C82.4961 67.2161 83.0401 67.68 83.6852 67.9968L84.5669 66.2017ZM83.652 65.4254C83.4598 65.1697 83.3193 64.7818 83.3193 64.1747H81.3193C81.3193 65.0904 81.5344 65.9369 82.0534 66.6273L83.652 65.4254ZM83.3193 64.1747C83.3193 63.3188 83.6097 62.7412 84.1556 62.3159L82.9264 60.7382C81.8434 61.5819 81.3193 62.7694 81.3193 64.1747H83.3193ZM84.1625 62.3105C84.7587 61.8376 85.5829 61.5579 86.7243 61.5579V59.5579C85.2503 59.5579 83.9523 59.9244 82.9196 60.7436L84.1625 62.3105ZM86.7243 61.5579C87.8935 61.5579 88.7273 61.8399 89.3206 62.3105L90.5635 60.7436C89.5279 59.9221 88.2166 59.5579 86.7243 59.5579V61.5579ZM89.3275 62.3159C89.8863 62.7512 90.2066 63.3553 90.2511 64.2422L92.2486 64.1418C92.1784 62.7444 91.6268 61.5719 90.5567 60.7382L89.3275 62.3159ZM91.2498 63.192H88.0665V65.192H91.2498V63.192ZM89.0648 64.1336C89.0283 63.5091 88.784 62.9282 88.2754 62.5056L86.9973 64.044C87.0163 64.0598 87.0589 64.0904 87.0682 64.2504L89.0648 64.1336ZM88.2946 62.5221C87.8169 62.1043 87.2307 61.9287 86.6211 61.9287V63.9287C86.8375 63.9287 86.928 63.9839 86.978 64.0276L88.2946 62.5221ZM86.6211 61.9287C86.0737 61.9287 85.5307 62.0847 85.0918 62.4796L86.4296 63.9663C86.435 63.9615 86.4427 63.9554 86.4628 63.9485C86.4858 63.9406 86.5347 63.9287 86.6211 63.9287V61.9287ZM85.1145 62.4598C84.6173 62.8809 84.4338 63.465 84.4338 64.0362H86.4338C86.4338 63.9574 86.4459 63.9313 86.4434 63.9376C86.442 63.9411 86.438 63.9497 86.4302 63.9605C86.4224 63.9714 86.4139 63.9801 86.407 63.986L85.1145 62.4598ZM84.4338 64.0362C84.4338 64.8172 84.8353 65.4319 85.4718 65.812L86.4971 64.0948C86.4615 64.0736 86.4423 64.0573 86.4335 64.049C86.4253 64.0411 86.4256 64.0396 86.4288 64.045C86.4323 64.0507 86.4345 64.0567 86.4353 64.0599C86.436 64.0625 86.4338 64.0559 86.4338 64.0362H84.4338ZM85.4718 65.812C85.9372 66.0899 86.5969 66.3539 87.3958 66.6138L88.0146 64.712C87.2533 64.4643 86.7658 64.2553 86.4971 64.0948L85.4718 65.812ZM87.3831 66.6096C88.1398 66.867 88.7235 67.1039 89.1487 67.3177L90.0472 65.5309C89.5088 65.2602 88.8307 64.9895 88.0272 64.7162L87.3831 66.6096ZM89.1571 67.3219C89.5046 67.4926 89.8113 67.7428 90.0792 68.0903L91.6634 66.8695C91.22 66.2942 90.6778 65.8406 90.0388 65.5268L89.1571 67.3219ZM90.0792 68.0903C90.2695 68.3374 90.4047 68.7007 90.4047 69.2624H92.4047C92.4047 68.3704 92.1843 67.5455 91.6634 66.8695L90.0792 68.0903ZM90.4047 69.2624C90.4047 69.7734 90.2763 70.2163 90.0248 70.6161L91.7177 71.6811C92.1775 70.9503 92.4047 70.1357 92.4047 69.2624H90.4047ZM90.0171 70.6286C89.7822 71.0146 89.4274 71.3437 88.9078 71.605L89.8063 73.3918C90.6174 72.984 91.2721 72.4132 91.7254 71.6686L90.0171 70.6286ZM88.9078 71.605C88.4089 71.8559 87.7833 72.0002 86.9997 72.0002V74.0002C88.0286 74.0002 88.9745 73.81 89.8063 73.3918L88.9078 71.605ZM97.3088 63.1018V65.5591H99.3088V63.1018H97.3088ZM98.3088 66.5591H102.249V64.5591H98.3088V66.5591ZM101.249 65.5591V67.8434H103.249V65.5591H101.249ZM102.249 66.8434H98.3088V68.8434H102.249V66.8434ZM97.3088 67.8434V70.5083H99.3088V67.8434H97.3088ZM98.3088 71.5083H102.765V69.5083H98.3088V71.5083ZM101.765 70.5083V72.8791H103.765V70.5083H101.765ZM102.765 71.8791H95.3664V73.8791H102.765V71.8791ZM96.3664 72.8791V60.731H94.3664V72.8791H96.3664ZM95.3664 61.731H102.765V59.731H95.3664V61.731ZM101.765 60.731V63.1018H103.765V60.731H101.765ZM102.765 62.1018H98.3088V64.1018H102.765V62.1018ZM113.125 66.7877C113.125 65.7358 113.35 64.8387 113.775 64.0699L112.024 63.1028C111.416 64.2029 111.125 65.4401 111.125 66.7877H113.125ZM113.777 64.0653C114.206 63.2794 114.791 62.6841 115.543 62.259L114.558 60.5182C113.474 61.1314 112.625 62.0012 112.022 63.1073L113.777 64.0653ZM115.546 62.2569C116.31 61.8204 117.186 61.5925 118.199 61.5925V59.5925C116.872 59.5925 115.648 59.8953 114.554 60.5202L115.546 62.2569ZM118.199 61.5925C119.446 61.5925 120.457 61.9197 121.284 62.5363L122.479 60.9331C121.264 60.0268 119.82 59.5925 118.199 59.5925V61.5925ZM121.284 62.5363C122.11 63.1526 122.671 63.9911 122.962 65.1027L124.897 64.5964C124.499 63.0777 123.695 61.8396 122.479 60.9331L121.284 62.5363ZM123.929 63.8496H120.694V65.8496H123.929V63.8496ZM121.598 64.4208C121.279 63.7486 120.804 63.2051 120.172 62.83L119.152 64.5502C119.414 64.7059 119.628 64.9353 119.791 65.2783L121.598 64.4208ZM120.182 62.8359C119.573 62.4657 118.891 62.2921 118.165 62.2921V64.2921C118.563 64.2921 118.878 64.3839 119.142 64.5443L120.182 62.8359ZM118.165 62.2921C116.995 62.2921 115.98 62.7159 115.214 63.5808L116.711 64.907C117.069 64.5029 117.522 64.2921 118.165 64.2921V62.2921ZM115.214 63.5808C114.452 64.4409 114.119 65.5459 114.119 66.7877H116.119C116.119 65.9068 116.348 65.3159 116.711 64.907L115.214 63.5808ZM114.119 66.7877C114.119 68.0296 114.452 69.1345 115.214 69.9947L116.711 68.6685C116.348 68.2596 116.119 67.6687 116.119 66.7877H114.119ZM115.214 69.9947C115.98 70.8596 116.995 71.2834 118.165 71.2834V69.2834C117.522 69.2834 117.069 69.0726 116.711 68.6685L115.214 69.9947ZM118.165 71.2834C118.891 71.2834 119.573 71.1098 120.182 70.7395L119.142 69.0312C118.878 69.1916 118.563 69.2834 118.165 69.2834V71.2834ZM120.172 70.7454C120.804 70.3704 121.279 69.8269 121.598 69.1546L119.791 68.2972C119.628 68.6402 119.414 68.8696 119.152 69.0252L120.172 70.7454ZM120.694 69.7259H123.929V67.7259H120.694V69.7259ZM122.962 68.4728C122.671 69.5844 122.11 70.4229 121.284 71.0392L122.479 72.6424C123.695 71.7359 124.499 70.4978 124.897 68.9791L122.962 68.4728ZM121.29 71.0349C120.462 71.6423 119.449 71.9656 118.199 71.9656V73.9656C119.817 73.9656 121.259 73.539 122.473 72.6468L121.29 71.0349ZM118.199 71.9656C117.182 71.9656 116.304 71.7417 115.538 71.3139L114.562 73.0599C115.655 73.6704 116.876 73.9656 118.199 73.9656V71.9656ZM115.551 71.3212C114.792 70.8822 114.204 70.2822 113.775 69.5056L112.024 70.4727C112.627 71.5651 113.473 72.4303 114.55 73.0526L115.551 71.3212ZM113.775 69.5056C113.35 68.7368 113.125 67.8397 113.125 66.7877H111.125C111.125 68.1354 111.416 69.3726 112.024 70.4727L113.775 69.5056ZM129.773 60.731V67.9991H131.773V60.731H129.773ZM129.773 67.9991C129.773 68.8809 129.989 69.7141 130.565 70.3493L132.047 69.006C131.912 68.8568 131.773 68.5709 131.773 67.9991H129.773ZM130.565 70.3493C131.163 71.009 131.991 71.2661 132.872 71.2661V69.2661C132.376 69.2661 132.16 69.1309 132.047 69.006L130.565 70.3493ZM132.872 71.2661C133.755 71.2661 134.579 71.0084 135.185 70.361L133.725 68.9944C133.597 69.1314 133.366 69.2661 132.872 69.2661V71.2661ZM135.185 70.361C135.779 69.7262 136.006 68.8885 136.006 67.9991H134.006C134.006 68.5633 133.865 68.8447 133.725 68.9944L135.185 70.361ZM136.006 67.9991V60.731H134.006V67.9991H136.006ZM135.006 61.731H137.948V59.731H135.006V61.731ZM136.948 60.731V67.9818H138.948V60.731H136.948ZM136.948 67.9818C136.948 68.925 136.749 69.6516 136.407 70.2113L138.113 71.2552C138.688 70.3153 138.948 69.2075 138.948 67.9818H136.948ZM136.407 70.2113C136.046 70.801 135.569 71.2345 134.963 71.5305L135.84 73.3279C136.794 72.8625 137.556 72.1654 138.113 71.2552L136.407 70.2113ZM134.958 71.5331C134.342 71.8382 133.636 72.0002 132.82 72.0002V74.0002C133.909 74.0002 134.924 73.7816 135.845 73.3253L134.958 71.5331ZM132.82 72.0002C132 72.0002 131.299 71.842 130.695 71.5476L129.818 73.3453C130.729 73.7893 131.736 74.0002 132.82 74.0002V72.0002ZM130.711 71.5559C130.143 71.2657 129.692 70.8382 129.349 70.248L127.62 71.2532C128.148 72.1628 128.879 72.8658 129.802 73.3371L130.711 71.5559ZM129.352 70.2538C129.021 69.6754 128.83 68.9327 128.83 67.9818H126.83C126.83 69.1998 127.076 70.3029 127.616 71.2474L129.352 70.2538ZM128.83 67.9818V60.731H126.83V67.9818H128.83ZM127.83 61.731H130.773V59.731H127.83V61.731ZM144.108 60.731V72.8791H146.108V60.731H144.108ZM145.108 71.8791H142.165V73.8791H145.108V71.8791ZM143.165 72.8791V60.731H141.165V72.8791H143.165ZM142.165 61.731H145.108V59.731H142.165V61.731ZM153.762 72.0002C152.987 72.0002 152.328 71.8741 151.768 71.6431L151.006 73.4922C151.845 73.838 152.769 74.0002 153.762 74.0002V72.0002ZM151.768 71.6431C151.222 71.4181 150.809 71.098 150.5 70.6866L148.901 71.8875C149.441 72.6066 150.152 73.1403 151.006 73.4922L151.768 71.6431ZM150.508 70.6972C150.23 70.317 150.064 69.8389 150.046 69.2162L148.047 69.2739C148.075 70.2433 148.345 71.1266 148.893 71.8769L150.508 70.6972ZM149.047 70.2451H152.178V68.2451H149.047V70.2451ZM151.184 69.3465C151.248 69.9738 151.479 70.572 151.967 71.0199L153.319 69.5468C153.28 69.5101 153.201 69.4161 153.173 69.1436L151.184 69.3465ZM151.985 71.0361C152.467 71.4582 153.062 71.6295 153.676 71.6295V69.6295C153.44 69.6295 153.346 69.57 153.301 69.5306L151.985 71.0361ZM153.676 71.6295C154.254 71.6295 154.84 71.4994 155.322 71.1249L154.094 69.5457C154.072 69.5634 153.969 69.6295 153.676 69.6295V71.6295ZM155.343 71.1075C155.85 70.6904 156.087 70.1119 156.087 69.4873H154.087C154.087 69.5474 154.076 69.5653 154.079 69.5599C154.08 69.5581 154.081 69.5558 154.082 69.5543C154.083 69.5531 154.081 69.5562 154.073 69.5631L155.343 71.1075ZM156.087 69.4873C156.087 68.9296 155.882 68.4141 155.465 68.0181L154.088 69.4683C154.093 69.4732 154.094 69.4746 154.092 69.472C154.09 69.4693 154.088 69.4652 154.086 69.4606C154.084 69.4561 154.084 69.4544 154.084 69.4572C154.085 69.4603 154.087 69.4698 154.087 69.4873H156.087ZM155.486 68.0381C155.186 67.7362 154.825 67.5074 154.428 67.3385L153.645 69.1788C153.845 69.2638 153.978 69.358 154.068 69.4483L155.486 68.0381ZM154.442 67.3442C154.098 67.1921 153.638 67.0338 153.085 66.8681L152.511 68.784C153.036 68.9413 153.402 69.0715 153.632 69.1731L154.442 67.3442ZM153.095 66.871C152.343 66.6375 151.759 66.413 151.329 66.2017L150.447 67.9968C151.003 68.27 151.693 68.53 152.501 68.781L153.095 66.871ZM151.329 66.2017C150.987 66.034 150.682 65.7826 150.414 65.4254L148.815 66.6273C149.258 67.2161 149.802 67.68 150.447 67.9968L151.329 66.2017ZM150.414 65.4254C150.222 65.1697 150.081 64.7818 150.081 64.1747H148.081C148.081 65.0904 148.296 65.9369 148.815 66.6273L150.414 65.4254ZM150.081 64.1747C150.081 63.3188 150.372 62.7412 150.917 62.3159L149.688 60.7382C148.605 61.5819 148.081 62.7694 148.081 64.1747H150.081ZM150.924 62.3105C151.521 61.8376 152.345 61.5579 153.486 61.5579V59.5579C152.012 59.5579 150.714 59.9244 149.681 60.7436L150.924 62.3105ZM153.486 61.5579C154.655 61.5579 155.489 61.8399 156.083 62.3105L157.325 60.7436C156.29 59.9221 154.979 59.5579 153.486 59.5579V61.5579ZM156.089 62.3159C156.648 62.7512 156.968 63.3553 157.013 64.2422L159.01 64.1418C158.94 62.7444 158.389 61.5719 157.319 60.7382L156.089 62.3159ZM158.012 63.192H154.828V65.192H158.012V63.192ZM155.827 64.1336C155.79 63.5091 155.546 62.9282 155.037 62.5056L153.759 64.044C153.778 64.0598 153.821 64.0904 153.83 64.2504L155.827 64.1336ZM155.057 62.5221C154.579 62.1043 153.993 61.9287 153.383 61.9287V63.9287C153.599 63.9287 153.69 63.9839 153.74 64.0276L155.057 62.5221ZM153.383 61.9287C152.836 61.9287 152.293 62.0847 151.854 62.4796L153.192 63.9663C153.197 63.9615 153.205 63.9554 153.225 63.9485C153.248 63.9406 153.297 63.9287 153.383 63.9287V61.9287ZM151.876 62.4598C151.379 62.8809 151.196 63.465 151.196 64.0362H153.196C153.196 63.9574 153.208 63.9313 153.205 63.9376C153.204 63.9411 153.2 63.9497 153.192 63.9605C153.184 63.9714 153.176 63.9801 153.169 63.986L151.876 62.4598ZM151.196 64.0362C151.196 64.8172 151.597 65.4319 152.234 65.812L153.259 64.0948C153.223 64.0736 153.204 64.0573 153.195 64.049C153.187 64.0411 153.187 64.0396 153.191 64.045C153.194 64.0507 153.196 64.0567 153.197 64.0599C153.198 64.0625 153.196 64.0559 153.196 64.0362H151.196ZM152.234 65.812C152.699 66.0899 153.359 66.3539 154.158 66.6138L154.776 64.712C154.015 64.4643 153.528 64.2553 153.259 64.0948L152.234 65.812ZM154.145 66.6096C154.902 66.867 155.485 67.1039 155.911 67.3177L156.809 65.5309C156.271 65.2602 155.593 64.9895 154.789 64.7162L154.145 66.6096ZM155.919 67.3219C156.267 67.4926 156.573 67.7428 156.841 68.0903L158.425 66.8695C157.982 66.2942 157.44 65.8406 156.801 65.5268L155.919 67.3219ZM156.841 68.0903C157.031 68.3374 157.167 68.7007 157.167 69.2624H159.167C159.167 68.3704 158.946 67.5455 158.425 66.8695L156.841 68.0903ZM157.167 69.2624C157.167 69.7734 157.038 70.2163 156.787 70.6161L158.48 71.6811C158.939 70.9503 159.167 70.1357 159.167 69.2624H157.167ZM156.779 70.6286C156.544 71.0146 156.189 71.3437 155.67 71.605L156.568 73.3918C157.379 72.984 158.034 72.4132 158.487 71.6686L156.779 70.6286ZM155.67 71.605C155.171 71.8559 154.545 72.0002 153.762 72.0002V74.0002C154.79 74.0002 155.736 73.81 156.568 73.3918L155.67 71.605ZM164.071 60.731V72.8791H166.071V60.731H164.071ZM165.071 71.8791H162.128V73.8791H165.071V71.8791ZM163.128 72.8791V60.731H161.128V72.8791H163.128ZM162.128 61.731H165.071V59.731H162.128V61.731ZM180.16 71.8791H177.218V73.8791H180.16V71.8791ZM178.053 72.3302L173.132 64.8371L171.461 65.935L176.382 73.4281L178.053 72.3302ZM171.296 65.386V72.8791H173.296V65.386H171.296ZM172.296 71.8791H169.354V73.8791H172.296V71.8791ZM170.354 72.8791V60.731H168.354V72.8791H170.354ZM169.354 61.731H172.296V59.731H169.354V61.731ZM171.459 61.2782L176.381 68.8059L178.055 67.7115L173.133 60.1838L171.459 61.2782ZM178.218 68.2587V60.731H176.218V68.2587H178.218ZM177.218 61.731H180.16V59.731H177.218V61.731ZM179.16 60.731V72.8791H181.16V60.731H179.16ZM186.386 63.1018V65.5591H188.386V63.1018H186.386ZM187.386 66.5591H191.327V64.5591H187.386V66.5591ZM190.327 65.5591V67.8434H192.327V65.5591H190.327ZM191.327 66.8434H187.386V68.8434H191.327V66.8434ZM186.386 67.8434V70.5083H188.386V67.8434H186.386ZM187.386 71.5083H191.843V69.5083H187.386V71.5083ZM190.843 70.5083V72.8791H192.843V70.5083H190.843ZM191.843 71.8791H184.444V73.8791H191.843V71.8791ZM185.444 72.8791V60.731H183.444V72.8791H185.444ZM184.444 61.731H191.843V59.731H184.444V61.731ZM190.843 60.731V63.1018H192.843V60.731H190.843ZM191.843 62.1018H187.386V64.1018H191.843V62.1018Z" fill="#F3EADB" mask="url(#path-1-inside-1_10_48355)"/>
</svg>
