<svg width="167" height="81" viewBox="0 0 167 81" fill="none" xmlns="http://www.w3.org/2000/svg">
<path d="M28.32 19.64L17.28 40.904V53H11.808V40.904L0.72 19.64H6.816L14.544 36.008L22.272 19.64H28.32ZM103.481 53.432C101.401 53.432 99.5293 53.064 97.8653 52.328C96.2333 51.56 94.9373 50.536 93.9773 49.256C93.0173 47.944 92.5053 46.488 92.4413 44.888H98.1053C98.2013 46.008 98.7293 46.952 99.6893 47.72C100.681 48.456 101.913 48.824 103.385 48.824C104.921 48.824 106.105 48.536 106.937 47.96C107.801 47.352 108.233 46.584 108.233 45.656C108.233 44.664 107.753 43.928 106.793 43.448C105.865 42.968 104.377 42.44 102.329 41.864C100.345 41.32 98.7293 40.792 97.4813 40.28C96.2333 39.768 95.1453 38.984 94.2173 37.928C93.3213 36.872 92.8733 35.48 92.8733 33.752C92.8733 32.344 93.2893 31.064 94.1213 29.912C94.9533 28.728 96.1373 27.8 97.6733 27.128C99.2413 26.456 101.033 26.12 103.049 26.12C106.057 26.12 108.473 26.888 110.297 28.424C112.153 29.928 113.145 31.992 113.273 34.616H107.801C107.705 33.432 107.225 32.488 106.361 31.784C105.497 31.08 104.329 30.728 102.857 30.728C101.417 30.728 100.313 31 99.5453 31.544C98.7773 32.088 98.3933 32.808 98.3933 33.704C98.3933 34.408 98.6493 35 99.1613 35.48C99.6733 35.96 100.297 36.344 101.033 36.632C101.769 36.888 102.857 37.224 104.297 37.64C106.217 38.152 107.785 38.68 109.001 39.224C110.249 39.736 111.321 40.504 112.217 41.528C113.113 42.552 113.577 43.912 113.609 45.608C113.609 47.112 113.193 48.456 112.361 49.64C111.529 50.824 110.345 51.752 108.809 52.424C107.305 53.096 105.529 53.432 103.481 53.432ZM133.202 26.12C135.218 26.12 137.01 26.552 138.578 27.416C140.178 28.28 141.426 29.56 142.322 31.256C143.25 32.952 143.714 35 143.714 37.4V53H138.29V38.216C138.29 35.848 137.698 34.04 136.514 32.792C135.33 31.512 133.714 30.872 131.666 30.872C129.618 30.872 127.986 31.512 126.77 32.792C125.586 34.04 124.994 35.848 124.994 38.216V53H119.522V17.48H124.994V29.624C125.922 28.504 127.09 27.64 128.498 27.032C129.938 26.424 131.506 26.12 133.202 26.12ZM153.478 23.048C152.486 23.048 151.654 22.712 150.982 22.04C150.31 21.368 149.974 20.536 149.974 19.544C149.974 18.552 150.31 17.72 150.982 17.048C151.654 16.376 152.486 16.04 153.478 16.04C154.438 16.04 155.254 16.376 155.926 17.048C156.598 17.72 156.934 18.552 156.934 19.544C156.934 20.536 156.598 21.368 155.926 22.04C155.254 22.712 154.438 23.048 153.478 23.048ZM156.166 26.552V53H150.694V26.552H156.166Z" fill="#3F2D20"/>
<path d="M44.1345 53.432C41.6385 53.432 39.3825 52.872 37.3665 51.752C35.3505 50.6 33.7665 49 32.6145 46.952C31.4625 44.872 30.8865 42.472 30.8865 39.752C30.8865 37.064 31.4785 34.68 32.6625 32.6C33.8465 30.52 35.4625 28.92 37.5105 27.8C39.5585 26.68 41.8465 26.12 44.3745 26.12C46.9025 26.12 49.1905 26.68 51.2385 27.8C53.2865 28.92 54.9025 30.52 56.0865 32.6C57.2705 34.68 57.8625 37.064 57.8625 39.752C57.8625 42.44 57.2545 44.824 56.0385 46.904C54.8225 48.984 53.1585 50.6 51.0465 51.752C48.9665 52.872 46.6625 53.432 44.1345 53.432ZM44.1345 48.68C45.5425 48.68 46.8545 48.344 48.0705 47.672C49.3185 47 50.3265 45.992 51.0945 44.648C51.8625 43.304 52.2465 41.672 52.2465 39.752C52.2465 37.832 51.8785 36.216 51.1425 34.904C50.4065 33.56 49.4305 32.552 48.2145 31.88C46.9985 31.208 45.6865 30.872 44.2785 30.872C42.8705 30.872 41.5585 31.208 40.3425 31.88C39.1585 32.552 38.2145 33.56 37.5105 34.904C36.8065 36.216 36.4545 37.832 36.4545 39.752C36.4545 42.6 37.1745 44.808 38.6145 46.376C40.0865 47.912 41.9265 48.68 44.1345 48.68Z" fill="#EF8829"/>
<path d="M74.7439 53.432C72.2479 53.432 69.9919 52.872 67.9759 51.752C65.9599 50.6 64.3759 49 63.2239 46.952C62.0719 44.872 61.4959 42.472 61.4959 39.752C61.4959 37.064 62.0879 34.68 63.2719 32.6C64.4559 30.52 66.0719 28.92 68.1199 27.8C70.1679 26.68 72.4559 26.12 74.9839 26.12C77.5119 26.12 79.7999 26.68 81.8479 27.8C83.8959 28.92 85.5119 30.52 86.6959 32.6C87.8799 34.68 88.4719 37.064 88.4719 39.752C88.4719 42.44 87.8639 44.824 86.6479 46.904C85.4319 48.984 83.7679 50.6 81.6559 51.752C79.5759 52.872 77.2719 53.432 74.7439 53.432ZM74.7439 48.68C76.1519 48.68 77.4639 48.344 78.6799 47.672C79.9279 47 80.9359 45.992 81.7039 44.648C82.4719 43.304 82.8559 41.672 82.8559 39.752C82.8559 37.832 82.4879 36.216 81.7519 34.904C81.0159 33.56 80.0399 32.552 78.8239 31.88C77.6079 31.208 76.2959 30.872 74.8879 30.872C73.4799 30.872 72.1679 31.208 70.9519 31.88C69.7679 32.552 68.8239 33.56 68.1199 34.904C67.4159 36.216 67.0639 37.832 67.0639 39.752C67.0639 42.6 67.7839 44.808 69.2239 46.376C70.6959 47.912 72.5359 48.68 74.7439 48.68Z" fill="#84BD93"/>
<path d="M10.028 65.172V71.864C10.028 72.9 9.734 73.698 9.146 74.258C8.56733 74.818 7.78333 75.098 6.794 75.098C5.758 75.098 4.92733 74.804 4.302 74.216C3.67667 73.628 3.364 72.7927 3.364 71.71H5.744C5.744 72.1207 5.828 72.4333 5.996 72.648C6.164 72.8533 6.40667 72.956 6.724 72.956C7.01333 72.956 7.23733 72.8627 7.396 72.676C7.55467 72.4893 7.634 72.2187 7.634 71.864V65.172H10.028ZM19.6897 73.264H16.0217L15.4337 75H12.9277L16.4837 65.172H19.2558L22.8118 75H20.2777L19.6897 73.264ZM19.0737 71.416L17.8558 67.818L16.6517 71.416H19.0737ZM32.994 68.336C32.994 68.9053 32.8633 69.428 32.602 69.904C32.3407 70.3707 31.9393 70.7487 31.398 71.038C30.8567 71.3273 30.1847 71.472 29.382 71.472H27.898V75H25.504V65.172H29.382C30.166 65.172 30.8287 65.3073 31.37 65.578C31.9113 65.8487 32.3173 66.222 32.588 66.698C32.8587 67.174 32.994 67.72 32.994 68.336ZM29.2 69.568C29.6573 69.568 29.998 69.4607 30.222 69.246C30.446 69.0313 30.558 68.728 30.558 68.336C30.558 67.944 30.446 67.6407 30.222 67.426C29.998 67.2113 29.6573 67.104 29.2 67.104H27.898V69.568H29.2ZM41.9683 73.264H38.3003L37.7123 75H35.2063L38.7623 65.172H41.5343L45.0903 75H42.5563L41.9683 73.264ZM41.3523 71.416L40.1343 67.818L38.9303 71.416H41.3523ZM56.5746 75H54.1806L50.1766 68.938V75H47.7826V65.172H50.1766L54.1806 71.262V65.172H56.5746V75ZM62.314 67.09V69.078H65.52V70.926H62.314V73.082H65.94V75H59.92V65.172H65.94V67.09H62.314ZM72.6602 75.098C71.9415 75.098 71.2975 74.9813 70.7282 74.748C70.1588 74.5147 69.7015 74.1693 69.3562 73.712C69.0202 73.2547 68.8428 72.704 68.8242 72.06H71.3722C71.4095 72.424 71.5355 72.704 71.7502 72.9C71.9648 73.0867 72.2448 73.18 72.5902 73.18C72.9448 73.18 73.2248 73.1007 73.4302 72.942C73.6355 72.774 73.7382 72.5453 73.7382 72.256C73.7382 72.0133 73.6542 71.8127 73.4862 71.654C73.3275 71.4953 73.1268 71.3647 72.8842 71.262C72.6508 71.1593 72.3148 71.0427 71.8762 70.912C71.2415 70.716 70.7235 70.52 70.3222 70.324C69.9208 70.128 69.5755 69.8387 69.2862 69.456C68.9968 69.0733 68.8522 68.574 68.8522 67.958C68.8522 67.0433 69.1835 66.3293 69.8462 65.816C70.5088 65.2933 71.3722 65.032 72.4362 65.032C73.5188 65.032 74.3915 65.2933 75.0542 65.816C75.7168 66.3293 76.0715 67.048 76.1182 67.972H73.5282C73.5095 67.6547 73.3928 67.4073 73.1782 67.23C72.9635 67.0433 72.6882 66.95 72.3522 66.95C72.0628 66.95 71.8295 67.0293 71.6522 67.188C71.4748 67.3373 71.3862 67.5567 71.3862 67.846C71.3862 68.1633 71.5355 68.4107 71.8342 68.588C72.1328 68.7653 72.5995 68.9567 73.2342 69.162C73.8688 69.3767 74.3822 69.582 74.7742 69.778C75.1755 69.974 75.5208 70.2587 75.8102 70.632C76.0995 71.0053 76.2442 71.486 76.2442 72.074C76.2442 72.634 76.0995 73.1427 75.8102 73.6C75.5302 74.0573 75.1195 74.4213 74.5782 74.692C74.0368 74.9627 73.3975 75.098 72.6602 75.098ZM81.7214 67.09V69.078H84.9274V70.926H81.7214V73.082H85.3474V75H79.3274V65.172H85.3474V67.09H81.7214ZM92.6825 70.072C92.6825 69.1013 92.8925 68.238 93.3125 67.482C93.7325 66.7167 94.3158 66.124 95.0625 65.704C95.8185 65.2747 96.6725 65.06 97.6245 65.06C98.7911 65.06 99.7898 65.368 100.62 65.984C101.451 66.6 102.006 67.44 102.286 68.504H99.6545C99.4585 68.0933 99.1785 67.7807 98.8145 67.566C98.4598 67.3513 98.0538 67.244 97.5965 67.244C96.8591 67.244 96.2618 67.5007 95.8045 68.014C95.3471 68.5273 95.1185 69.2133 95.1185 70.072C95.1185 70.9307 95.3471 71.6167 95.8045 72.13C96.2618 72.6433 96.8591 72.9 97.5965 72.9C98.0538 72.9 98.4598 72.7927 98.8145 72.578C99.1785 72.3633 99.4585 72.0507 99.6545 71.64H102.286C102.006 72.704 101.451 73.544 100.62 74.16C99.7898 74.7667 98.7911 75.07 97.6245 75.07C96.6725 75.07 95.8185 74.86 95.0625 74.44C94.3158 74.0107 93.7325 73.418 93.3125 72.662C92.8925 71.906 92.6825 71.0427 92.6825 70.072ZM107.715 65.172V71.052C107.715 71.64 107.859 72.0927 108.149 72.41C108.438 72.7273 108.863 72.886 109.423 72.886C109.983 72.886 110.412 72.7273 110.711 72.41C111.009 72.0927 111.159 71.64 111.159 71.052V65.172H113.553V71.038C113.553 71.9153 113.366 72.6573 112.993 73.264C112.619 73.8707 112.115 74.328 111.481 74.636C110.855 74.944 110.155 75.098 109.381 75.098C108.606 75.098 107.911 74.9487 107.295 74.65C106.688 74.342 106.207 73.8847 105.853 73.278C105.498 72.662 105.321 71.9153 105.321 71.038V65.172H107.715ZM119.238 65.172V75H116.844V65.172H119.238ZM126.139 75.098C125.42 75.098 124.776 74.9813 124.207 74.748C123.637 74.5147 123.18 74.1693 122.835 73.712C122.499 73.2547 122.321 72.704 122.303 72.06H124.851C124.888 72.424 125.014 72.704 125.229 72.9C125.443 73.0867 125.723 73.18 126.069 73.18C126.423 73.18 126.703 73.1007 126.909 72.942C127.114 72.774 127.217 72.5453 127.217 72.256C127.217 72.0133 127.133 71.8127 126.965 71.654C126.806 71.4953 126.605 71.3647 126.363 71.262C126.129 71.1593 125.793 71.0427 125.355 70.912C124.72 70.716 124.202 70.52 123.801 70.324C123.399 70.128 123.054 69.8387 122.765 69.456C122.475 69.0733 122.331 68.574 122.331 67.958C122.331 67.0433 122.662 66.3293 123.325 65.816C123.987 65.2933 124.851 65.032 125.915 65.032C126.997 65.032 127.87 65.2933 128.533 65.816C129.195 66.3293 129.55 67.048 129.597 67.972H127.007C126.988 67.6547 126.871 67.4073 126.657 67.23C126.442 67.0433 126.167 66.95 125.831 66.95C125.541 66.95 125.308 67.0293 125.131 67.188C124.953 67.3373 124.865 67.5567 124.865 67.846C124.865 68.1633 125.014 68.4107 125.313 68.588C125.611 68.7653 126.078 68.9567 126.713 69.162C127.347 69.3767 127.861 69.582 128.253 69.778C128.654 69.974 128.999 70.2587 129.289 70.632C129.578 71.0053 129.723 71.486 129.723 72.074C129.723 72.634 129.578 73.1427 129.289 73.6C129.009 74.0573 128.598 74.4213 128.057 74.692C127.515 74.9627 126.876 75.098 126.139 75.098ZM135.2 65.172V75H132.806V65.172H135.2ZM147.337 75H144.943L140.939 68.938V75H138.545V65.172H140.939L144.943 71.262V65.172H147.337V75ZM153.076 67.09V69.078H156.282V70.926H153.076V73.082H156.702V75H150.682V65.172H156.702V67.09H153.076Z" fill="#EF8829"/>
</svg>
