<svg width="1131" height="1186" viewBox="0 0 1131 1186" fill="none" xmlns="http://www.w3.org/2000/svg">
<path d="M324.597 266.51C258.232 318.128 46.3464 427.636 109.339 543.271C181.686 676.075 49.9989 918.538 259.295 935.82C395.714 944.201 463.257 1120.57 549.439 1165.33C637.179 1210.43 810.718 1186.21 796.309 1036.98C782.178 890.609 1297.71 735.66 1075.17 621.618C943.495 554.146 1086.88 479.035 1023.95 365.877C899.032 144.872 590.987 62.3429 324.597 266.51Z" fill="#84BD93" fill-opacity="0.32"/>
<path d="M346.805 92.2535C321.33 92.2535 300.678 71.6019 300.678 46.1268C300.678 20.6517 321.33 0 346.805 0C372.28 0 392.932 20.6517 392.932 46.1268C392.932 71.6019 372.28 92.2535 346.805 92.2535Z" fill="#84BD93" fill-opacity="0.32"/>
<path opacity="0.6" d="M131.547 215.258C113.62 215.258 99.0877 200.726 99.0877 182.799C99.0877 164.872 113.62 150.339 131.547 150.339C149.474 150.339 164.007 164.872 164.007 182.799C164.007 200.726 149.474 215.258 131.547 215.258Z" fill="#84BD93" fill-opacity="0.32"/>
<path opacity="0.502" d="M17.084 126.421C7.64876 126.421 -3.8147e-06 118.773 -3.8147e-06 109.337C-3.8147e-06 99.9023 7.64876 92.2535 17.084 92.2535C26.5192 92.2535 34.168 99.9023 34.168 109.337C34.168 118.773 26.5192 126.421 17.084 126.421Z" fill="#84BD93" fill-opacity="0.32"/>
</svg>
