<svg width="336" height="14" viewBox="0 0 336 14" fill="none" xmlns="http://www.w3.org/2000/svg">
<path d="M1 2L10.7831 11.7153L20.5662 2L30.3493 11.7153L40.1325 2L49.9156 11.7153L59.6987 2L69.4818 11.7153L79.2649 2L89.048 11.7153" stroke="#84BD93" stroke-width="2" stroke-linecap="round"/>
<path d="M177.048 2L167.265 11.7153L157.482 2L147.699 11.7153L137.915 2L128.132 11.7153L118.349 2L108.566 11.7153L98.7829 2L88.9998 11.7153" stroke="#84BD93" stroke-width="2" stroke-linecap="round"/>
<path d="M177 2L186.783 11.7153L196.566 2L206.349 11.7153L216.132 2L225.916 11.7153L235.699 2L245.482 11.7153L255.265 2L265.048 11.7153" stroke="#84BD93" stroke-width="2" stroke-linecap="round"/>
<path d="M334.048 2L324.265 11.7153L314.482 2L304.699 11.7153L294.915 2L285.132 11.7153L275.349 2L265.566 11.7153L255.783 2L246 11.7153" stroke="#84BD93" stroke-width="2" stroke-linecap="round"/>
</svg>
